<svg width="565" height="629" viewBox="0 0 565 629" fill="none" xmlns="http://www.w3.org/2000/svg">
<circle cx="287" cy="287.836" r="116" fill="#68D5F9"/>
<path d="M306.531 62.7344H236.5V132.78H306.531V62.7344Z" stroke="#68D5F9" stroke-width="5"/>
<path d="M239.475 59.7188H233.485V65.7105H239.475V59.7188Z" fill="#68D5F9"/>
<path d="M239.475 129.805H233.485V135.796H239.475V129.805Z" fill="#FEFEFE"/>
<path d="M309.547 59.7188H303.557V65.7105H309.547V59.7188Z" fill="#CCF2FF"/>
<path d="M309.547 129.805H303.557V135.796H309.547V129.805Z" fill="#CCF2FF"/>
<path d="M318.393 87.1672H284.808C282.257 87.1672 280.17 85.0798 280.17 82.5284V48.9357C280.17 46.3843 282.257 44.2969 284.808 44.2969H318.393C320.944 44.2969 323.031 46.3843 323.031 48.9357V82.5284C323.031 85.0798 320.944 87.1672 318.393 87.1672Z" fill="#68D5F9"/>
<path d="M280.326 103.599C280.326 101.465 282.057 99.7344 284.189 99.7344H319.668L334.047 113.96V158.879C334.047 161.014 332.32 162.745 330.183 162.745H284.189C282.055 162.745 280.326 161.01 280.326 158.88V103.599Z" fill="#FEFEFE"/>
<path d="M319.666 99.7344L334.046 113.96L320.469 116.383C318.368 116.758 316.961 115.353 317.325 113.254L319.666 99.7344Z" fill="#68D5F9"/>
<path d="M293.358 75.9827C293.163 76.178 293.163 76.4945 293.358 76.6898C293.553 76.8851 293.87 76.8851 294.065 76.6898L293.358 75.9827ZM303.101 68.7542C302.905 68.559 302.589 68.559 302.394 68.7542C302.198 68.9495 302.198 69.2661 302.394 69.4613L303.101 68.7542ZM306.715 65.14C306.52 64.9447 306.203 64.9447 306.008 65.14C305.813 65.3353 305.813 65.6518 306.008 65.8471L306.715 65.14ZM315.796 57.5645C315.992 57.7598 316.308 57.7598 316.503 57.5645C316.699 57.3692 316.699 57.0527 316.503 56.8574L315.796 57.5645ZM313.19 53.5443C312.995 53.3491 312.679 53.3491 312.483 53.5443C312.288 53.7396 312.288 54.0562 312.483 54.2515L313.19 53.5443ZM309.622 57.4139L312.634 60.4258L313.341 59.7187L310.329 56.7068L309.622 57.4139ZM312.634 62.1281L300.586 74.1756L301.294 74.8827L313.341 62.8352L312.634 62.1281ZM298.884 74.1756L295.872 71.1637L295.165 71.8708L298.177 74.8827L298.884 74.1756ZM295.872 69.4613L307.92 57.4139L307.213 56.7068L295.165 68.7542L295.872 69.4613ZM295.872 71.1637C295.402 70.6936 295.402 69.9314 295.872 69.4613L295.165 68.7542C294.305 69.6149 294.305 71.0102 295.165 71.8708L295.872 71.1637ZM300.586 74.1756C300.116 74.6457 299.354 74.6457 298.884 74.1756L298.177 74.8827C299.038 75.7433 300.433 75.7433 301.294 74.8827L300.586 74.1756ZM312.634 60.4258C313.104 60.8959 313.104 61.658 312.634 62.1281L313.341 62.8352C314.202 61.9746 314.202 60.5793 313.341 59.7187L312.634 60.4258ZM310.329 56.7068C309.469 55.8462 308.073 55.8462 307.213 56.7068L307.92 57.4139C308.39 56.9438 309.152 56.9438 309.622 57.4139L310.329 56.7068ZM294.065 76.6898L297.378 73.3768L296.671 72.6696L293.358 75.9827L294.065 76.6898ZM302.394 69.4613L304.201 71.2685L304.908 70.5613L303.101 68.7542L302.394 69.4613ZM306.008 65.8471L307.815 67.6542L308.522 66.9471L306.715 65.14L306.008 65.8471ZM314.14 55.2009L310.827 58.5139L311.534 59.221L314.847 55.908L314.14 55.2009ZM316.503 56.8574L313.19 53.5443L312.483 54.2515L315.796 57.5645L316.503 56.8574Z" fill="#FEFEFE"/>
<path d="M305.27 138.998L294.13 132.414L305.232 113.91L305.27 138.998Z" fill="white" stroke="#68D5F9"/>
<path d="M306.27 138.998L306.233 113.912L317.383 132.415L306.27 138.998Z" fill="white" stroke="#68D5F9"/>
<path d="M305.271 138.997L294.521 132.645L305.258 127.746L305.271 138.997Z" fill="#F1F1F1" stroke="#68D5F9"/>
<path d="M316.982 132.64C316.683 132.812 316.316 133.024 315.898 133.264C314.745 133.927 313.207 134.809 311.671 135.68C310.134 136.551 308.6 137.411 307.454 138.033C306.992 138.283 306.597 138.493 306.29 138.649C306.291 138.3 306.291 137.848 306.291 137.324C306.289 136.143 306.285 134.598 306.28 133.064C306.275 131.53 306.269 130.005 306.265 128.865L306.26 127.748L316.982 132.64Z" fill="#F1F1F1" stroke="#68D5F9"/>
<path d="M306.241 150.699V142.501L316.272 136.559L306.241 150.699Z" fill="white" stroke="#68D5F9"/>
<path d="M305.242 142.501V150.699L295.211 136.559L305.242 142.501Z" fill="white" stroke="#68D5F9"/>
<path d="M474.971 442.633V404.539C474.971 381.438 474.971 358.39 474.971 335.343V300.003C474.971 298.732 452.988 297.672 426.555 297.672H421.046C394.667 297.672 372.63 298.732 372.63 300.003V442.739C372.63 444.011 394.614 445.071 421.046 445.071H426.555C452.935 445.124 474.971 444.011 474.971 442.633Z" fill="#FEFEFE"/>
<path d="M318.653 572.544L318.865 572.65C319.977 573.233 321.407 572.915 321.937 571.908L383.967 457.942C384.55 456.882 384.073 455.557 382.96 454.975L382.748 454.869C381.636 454.286 380.206 454.604 379.676 455.61L364.314 483.797C354.303 502.235 344.291 520.62 334.227 539.059L317.646 569.471C317.064 570.53 317.541 571.908 318.653 572.544Z" fill="#FEFEFE"/>
<path d="M472.642 453.016H433.814C410.294 453.016 386.775 453.016 363.309 453.016H327.288C326.017 453.016 324.904 454.075 324.904 455.347V455.612C324.904 456.883 325.964 457.943 327.288 457.943H472.748C474.019 457.943 475.132 456.883 475.132 455.612V455.347C475.132 454.075 474.019 453.016 472.642 453.016Z" fill="#FEFEFE"/>
<path d="M491.605 569.471L475.024 539.059C465.013 520.621 455.001 502.235 444.937 483.797L429.575 455.61C429.045 454.604 427.615 454.233 426.503 454.869L426.291 454.975C425.178 455.557 424.701 456.935 425.284 457.942L487.314 571.908C487.844 572.915 489.274 573.286 490.386 572.65L490.598 572.544C491.711 571.908 492.187 570.531 491.605 569.471Z" fill="#FEFEFE"/>
<path d="M434.432 567.888H381.103C380.736 567.888 380.389 567.959 380.08 568.084L384.794 540.205L422.315 535.569L434.432 567.888ZM367.554 568.008C367.318 567.93 367.065 567.888 366.801 567.888H282.629C282.359 567.888 282.1 567.933 281.858 568.014C281.7 567.753 281.582 567.461 281.517 567.147V567.094C281.517 566.829 281.464 566.564 281.517 566.299C281.57 565.981 281.57 565.716 281.676 565.398C282.364 563.014 284.218 561.001 285.437 559.888C285.596 559.729 285.701 559.676 285.86 559.57C288.191 558.14 290.575 556.815 293.065 555.702C297.938 553.477 308.744 548.92 311.975 547.278C316.16 545.159 321.934 541.556 327.973 535.092C328.291 534.933 328.714 534.721 328.714 534.721L365.794 533.82C365.794 533.82 365.953 534.35 365.953 534.403L367.807 566.882C367.807 567.287 367.717 567.668 367.554 568.008Z" fill="#474961"/>
<path d="M282.629 567.883H366.854C368.17 567.883 369.237 568.95 369.237 570.267C369.237 571.584 368.17 572.651 366.854 572.651H282.629C281.312 572.651 280.245 571.584 280.245 570.267C280.245 568.95 281.312 567.883 282.629 567.883ZM381.156 567.883H434.127C435.444 567.883 436.511 568.95 436.511 570.267C436.511 571.584 435.444 572.651 434.127 572.651H381.156C379.839 572.651 378.772 571.584 378.772 570.267C378.772 568.95 379.839 567.883 381.156 567.883Z" fill="#3EDB85"/>
<path d="M431.215 447.122C431.214 447.908 431.214 448.703 431.214 449.507C431.214 476.508 430.26 515.16 429.942 527.994C429.89 529.673 430.101 534.264 426.923 537.176C425.652 538.311 424.275 538.805 423.427 539.101C414.051 542.211 400.914 542.26 386.506 541.076C385.552 540.977 384.016 540.434 381.95 539.842C378.825 538.904 376.547 536.139 376.229 532.832C374.746 518.319 370.667 478.68 370.35 475.176C369.926 470.733 369.555 465.698 369.237 459.972L368.196 443.369C362.689 442.202 357.441 440.923 352.473 439.582C359.276 466.891 365.912 495.437 371.78 523.801C372.045 525.044 372.521 527.943 371.144 530.687C368.601 535.709 361.98 535.502 346.142 537.469C327.496 539.851 319.709 542.284 315.471 537.262C314.041 535.657 313.564 533.949 313.405 533.172C309.538 512.825 290.362 453.649 282.894 411.195C282.894 411.092 282.841 411.04 282.841 410.937C282.253 407.555 282.354 404.228 283.039 401.106C284.516 386.557 296.647 375.061 311.636 374.749L356.952 373.803C376.763 373.449 440.901 371.383 442.795 373.197C444.69 375.012 445.468 390.217 445.679 396.682C445.679 399.056 445.679 401.481 445.732 403.804C445.732 415.168 443.772 425.573 440.488 433.603C438.21 439.159 435.35 443.553 432.119 446.382C431.82 446.643 431.519 446.889 431.215 447.122Z" fill="#A339FF"/>
<path opacity="0.176986" d="M431.122 447.192C431.13 437.864 431.183 429.833 431.28 424.563C431.386 420.021 432.181 395.043 421.904 389.86C421.004 389.416 420.103 389.021 418.302 388.379C416.872 387.886 409.456 385.269 399.921 385.664C393.723 385.911 384.4 386.306 376.72 392.526C366.072 401.214 366.337 414.789 366.443 417.01L368.094 443.347C362.574 442.176 357.315 440.892 352.339 439.546C348.899 425.741 345.417 412.252 341.97 399.265C338.792 387.305 327.615 379.539 315.802 381.041C311.406 381.61 307.009 382.18 302.612 382.749C292.815 384.046 285.377 391.359 283.094 400.606C284.794 386.295 296.818 375.058 311.636 374.749L356.952 373.803C376.763 373.449 440.901 371.383 442.795 373.197C444.689 375.012 445.467 390.217 445.679 396.682C445.679 399.056 445.679 401.481 445.732 403.804C445.732 415.168 443.772 425.573 440.488 433.603C438.21 439.159 435.35 443.553 432.118 446.382C431.79 446.669 431.458 446.939 431.122 447.192Z" fill="#444444"/>
<path d="M351.408 338.301L328.622 336.044C326.292 335.832 326.288 331.027 326.22 329.068C326.442 327.063 327.372 324.038 329.048 323.252C328.11 321.621 327.949 318.73 328.663 315.949C329.233 313.732 331.229 312.413 333.296 311.734C335.005 306.204 337.649 297.06 338.63 292.69C341.558 279.387 345.568 274.316 346.947 272.837C348.529 271.085 350.077 269.864 351.11 269.086C358.085 263.912 365.629 262.906 369.49 262.665C369.594 262.609 369.7 262.605 369.806 262.601L384.425 261.884C386.39 261.659 388.251 261.518 389.932 261.391C395.038 261.033 400.309 260.657 405.51 261.309L421.882 261.54C421.988 261.54 422.094 261.54 422.2 261.593C426.067 261.699 433.642 262.44 440.793 267.368C441.852 268.11 443.441 269.275 445.083 270.971C446.514 272.401 450.698 277.329 454.089 290.521C455.221 294.854 458.183 303.9 460.084 309.367C462.173 309.975 464.214 311.222 464.86 313.419C465.671 316.173 465.612 319.068 464.731 320.73C466.433 321.457 467.468 324.448 467.76 326.444C467.76 328.404 467.925 333.207 465.603 333.5L445.025 336.267C446.482 347.696 446.523 357.238 445.439 363.539C445.439 363.702 445.382 363.919 445.325 364.081C445.039 365.762 444.638 367.172 444.123 368.31C444.066 368.419 444.009 368.527 443.952 368.636C441.033 372.756 417.972 371.293 412.535 371.455C403.608 371.726 393.308 371.781 380.604 371.509C376.656 371.401 369.159 372.106 360.003 369.72C359.946 369.72 359.889 369.666 359.889 369.666C359.889 369.666 358.744 369.341 357.428 368.582C356.799 368.202 356.055 367.768 355.425 367.172C349.703 362.021 350.962 349.713 350.962 349.713C351.112 345.681 351.26 341.881 351.408 338.301Z" fill="#F85729"/>
<path d="M402.714 246.354L403.289 263.233C403.289 263.604 403.13 263.975 402.812 264.134C401.435 264.981 399.475 265.935 397.038 266.465C392.641 267.472 388.88 266.73 386.762 266.094C386.338 265.988 386.02 265.564 386.02 265.14L385.812 255.713C382.805 256.834 382.975 256.722 382.696 256.816C379.359 257.663 376.499 257.557 375.969 257.451C374.062 257.292 372.049 255.703 370.248 253.001C367.811 249.398 365.639 243.782 364.474 237.053C364.262 236.099 364.209 235.145 364.156 234.192L363.944 224.708C363.891 222.588 364.421 220.522 365.428 218.562C365.851 217.714 366.275 217.025 366.805 216.442C366.917 216.298 367.032 216.157 367.147 216.019C371.311 210.64 379.592 209.934 383.438 210.349C383.915 210.402 385.61 210.614 388.046 210.773C389.371 210.879 390.43 210.879 391.066 210.932C398.958 211.25 402.084 210.296 406.057 212.416C406.798 212.787 408.493 213.74 409.977 215.595C414.161 220.84 413.155 227.622 412.89 229.635C411.937 235.675 408.44 239.384 407.381 240.921C406.183 242.688 404.206 244.828 402.714 246.354ZM329.524 360.185L333.302 336.534L351.377 337.939L351.178 354.116C358.087 353.341 364.922 353.253 368.375 354.747C368.474 354.79 368.572 354.834 368.667 354.879C385.03 351.782 413.052 346.657 430.235 344.509L428.505 338.396L464.089 333.613C465.698 351.129 463.869 372.324 446.193 374.497C425.792 377.005 392.018 377.005 344.87 374.497H321.581C321.251 367.69 325.734 363.777 329.524 360.185Z" fill="#DB9E75"/>
<path d="M411.872 233.482C409.389 233.485 407.021 233.603 404.666 233.735C405.02 231.846 404.738 229.777 403.501 228.052C401.806 225.668 398.628 224.343 396.085 225.191C394.655 225.668 393.701 226.781 393.595 226.887C392.165 228.688 391.847 230.595 391.847 230.595L391.58 233.224C387.325 228.815 381.902 223.241 377.856 218.986C375.47 219.64 371.532 220.294 367.058 219.342C366.446 219.207 365.868 219.003 365.322 218.772C365.357 218.702 365.392 218.632 365.428 218.562C365.852 217.714 366.275 217.025 366.805 216.442C366.918 216.298 367.032 216.157 367.148 216.019C371.312 210.64 379.593 209.934 383.438 210.349C383.915 210.402 385.61 210.614 388.047 210.773C389.371 210.879 390.43 210.879 391.066 210.932C398.959 211.25 402.084 210.296 406.057 212.416C406.799 212.787 408.494 213.74 409.977 215.595C414.162 220.84 413.155 227.622 412.89 229.635C412.668 231.043 412.308 232.325 411.872 233.482ZM366.05 231.337C365.52 231.231 365.361 230.542 365.732 230.172C366.209 229.748 367.057 229.324 368.116 229.324C370.288 229.324 372.619 230.754 370.182 231.39C368.752 231.814 367.057 231.602 366.05 231.337ZM376.962 231.708C376.433 231.602 376.274 230.913 376.697 230.542C377.174 230.119 378.022 229.695 379.134 229.695C381.306 229.695 383.637 231.178 381.2 231.761C379.664 232.238 378.022 231.92 376.962 231.708Z" fill="#482D1F"/>
<path opacity="0.2" d="M329.483 360.311L333.303 336.531L351.378 337.936L351.178 354.201C341.766 355.257 332.218 357.588 330.905 358.933C330.45 359.39 329.972 359.848 329.483 360.311Z" fill="#8C2A00"/>
<path d="M370.18 235.102C370.127 236.003 369.968 237.486 369.438 238.016C368.538 238.811 367.373 236.162 368.061 234.519C368.326 233.83 368.697 233.724 369.121 233.777C369.756 233.883 370.18 234.466 370.18 235.102ZM379.662 234.943C379.715 235.844 379.715 237.327 379.185 237.963C378.391 238.864 376.907 236.321 377.437 234.625C377.649 233.936 378.02 233.777 378.444 233.777C379.079 233.777 379.609 234.307 379.662 234.943Z" fill="#482D1F"/>
<path d="M394.936 258.843C395.442 258.698 396.671 258.336 396.888 257.541C396.888 257.396 396.96 257.179 396.888 257.035C396.599 256.528 395.731 256.818 394.43 256.89C392.116 257.035 390.236 256.818 390.236 256.818C390.236 256.818 390.742 258.264 391.104 258.698C391.899 259.783 394.213 259.06 394.936 258.843Z" fill="#482D1F"/>
<path d="M370.928 240.798C370.828 241.396 371.291 241.983 371.895 242.083C372.027 242.096 372.027 242.096 372.113 242.102C373.006 242.171 373.565 242.196 374.525 242.196C374.817 242.196 375.054 241.959 375.054 241.667C375.054 241.374 374.817 241.137 374.525 241.137C373.595 241.137 373.063 241.112 372.194 241.046L372.023 241.032C372.021 241.03 371.973 240.969 371.975 240.959L372.771 235.276L372.777 235.203V232.077C372.777 231.784 372.539 231.547 372.247 231.547C371.954 231.547 371.717 231.784 371.717 232.077V235.166L370.928 240.798Z" fill="#482D1F"/>
<path d="M404.672 230.94C404.914 232.492 404.635 234.182 403.93 235.542C403.074 237.254 401.869 238.188 400.312 238.907C400.046 239.03 399.93 239.345 400.053 239.61C400.175 239.876 400.49 239.992 400.756 239.869C401.44 239.553 401.984 239.248 402.613 238.761C403.54 238.043 404.315 237.141 404.874 236.022C405.679 234.471 405.996 232.552 405.719 230.776C405.673 230.487 405.403 230.289 405.113 230.335C404.824 230.38 404.627 230.651 404.672 230.94Z" fill="#482D1F"/>
<path d="M370.433 235.211C370.38 236.112 370.221 237.596 369.691 238.125C368.791 238.92 367.626 236.271 368.314 234.629C368.579 233.94 368.95 233.834 369.374 233.887C370.009 233.993 370.433 234.576 370.433 235.211ZM379.915 235.052C379.968 235.953 379.968 237.437 379.438 238.072C378.644 238.973 377.16 236.43 377.69 234.734C377.902 234.046 378.273 233.887 378.697 233.887C379.332 233.887 379.862 234.417 379.915 235.052Z" fill="#482D1F"/>
<path d="M395.28 258.999C395.786 258.854 397.015 258.493 397.232 257.697C397.232 257.552 397.305 257.336 397.232 257.191C396.943 256.685 396.076 256.974 394.774 257.046C392.46 257.191 390.581 256.974 390.581 256.974C390.581 256.974 391.087 258.42 391.448 258.854C392.244 259.939 394.557 259.216 395.28 258.999Z" fill="#482D1F"/>
<path d="M404.925 231.057C405.167 232.609 404.888 234.3 404.183 235.659C403.327 237.372 402.122 238.306 400.565 239.024C400.299 239.147 400.183 239.462 400.306 239.728C400.428 239.993 400.743 240.109 401.009 239.987C401.693 239.67 402.237 239.365 402.866 238.878C403.792 238.16 404.568 237.259 405.127 236.14C405.932 234.588 406.249 232.67 405.972 230.893C405.926 230.604 405.655 230.407 405.366 230.452C405.077 230.497 404.88 230.768 404.925 231.057Z" fill="#482D1F"/>
<path d="M429.271 338.557C429.4 338.976 429.165 339.421 428.745 339.55C428.326 339.679 427.881 339.444 427.752 339.024C426.242 334.117 421.423 319.244 420.404 316.496C420.251 316.084 420.461 315.627 420.872 315.474C421.284 315.322 421.741 315.532 421.893 315.943C422.926 318.728 427.753 333.621 429.271 338.557ZM356.933 294.052C355.608 306.298 354.549 316.068 352.165 338.028C352.118 338.465 351.726 338.78 351.289 338.733C350.853 338.685 350.538 338.293 350.585 337.857C352.969 315.896 354.028 306.127 355.353 293.881C355.4 293.445 355.792 293.129 356.228 293.177C356.664 293.224 356.98 293.616 356.933 294.052Z" fill="#482D1F"/>
<path d="M409.276 272.554L415.198 269.914L409.416 279.449L409.276 272.554Z" fill="#482D1F"/>
<path d="M173.297 571.911L173.085 572.017C171.973 572.6 170.542 572.282 170.013 571.275L107.983 457.309C107.4 456.249 107.877 454.925 108.989 454.342L109.201 454.236C110.314 453.653 111.744 453.971 112.274 454.978L127.635 483.165C137.647 501.603 147.659 519.988 157.723 538.426L174.303 568.838C174.886 569.898 174.409 571.275 173.297 571.911Z" fill="#FEFEFE"/>
<path d="M21.2157 452.383H60.0439C83.5632 452.383 107.083 452.383 130.549 452.383H166.57C167.841 452.383 168.953 453.442 168.953 454.714V454.979C168.953 456.251 167.894 457.31 166.57 457.31H21.1098C19.8385 457.31 18.7261 456.251 18.7261 454.979V454.714C18.7261 453.442 19.8385 452.383 21.2157 452.383Z" fill="#FEFEFE"/>
<path d="M0.345205 568.838L16.9253 538.426C26.9369 519.988 36.9485 501.603 47.0131 483.165L62.3749 454.978C62.9046 453.971 64.3348 453.6 65.4472 454.236L65.6591 454.342C66.7715 454.925 67.2483 456.302 66.6656 457.309L4.6359 571.275C4.10618 572.282 2.67595 572.653 1.56355 572.017L1.35166 571.911C0.239262 571.275 -0.237482 569.898 0.345205 568.838Z" fill="#FEFEFE"/>
<path d="M5.2729 301.699L10.3052 342.39C13.3775 367.027 16.3969 391.664 19.4693 416.248L24.1308 453.972C24.2897 455.296 23.3892 456.621 22.1178 456.78L21.853 456.833C20.5817 456.992 19.4163 456.038 19.2044 454.608L0.29357 302.228C0.134656 300.904 1.03517 299.579 2.30649 299.42L2.57135 299.367C3.89564 299.208 5.11398 300.268 5.2729 301.699Z" fill="#FEFEFE"/>
<path d="M94.7038 567.837H123.348C124.672 567.837 125.784 568.925 125.784 570.221C125.784 571.517 124.672 572.605 123.348 572.605H93.9483C92.624 572.605 91.5646 571.568 91.5116 570.221C91.5116 568.925 92.624 567.837 93.9483 567.837H94.7038L95.2726 568.26C96.332 569.055 96.5439 570.592 95.7493 571.651C94.9548 572.711 93.4186 572.923 92.3592 572.128L39.1757 532.497C38.1163 531.702 37.9044 530.166 38.699 529.106C39.4936 528.046 41.0297 527.835 42.0892 528.629L94.7038 567.837ZM234.641 572.55H150.522C149.198 572.55 148.138 571.49 148.138 570.166C148.138 568.841 149.198 567.781 150.522 567.781H234.694C236.018 567.781 237.077 568.841 237.077 570.166C237.024 571.49 235.965 572.55 234.641 572.55Z" fill="#FFBB43"/>
<path d="M42.0972 528.671L61.5281 501.125L93.417 524.279C95.165 530.213 96.9661 536.147 98.7671 542.134C99.7206 545.26 100.674 548.333 101.628 551.406C104.594 552.571 107.137 553.631 108.938 554.426C112.381 555.909 115.294 557.287 118.473 559.353C118.473 559.353 121.227 561.049 122.763 563.486C123.24 564.281 123.664 565.181 123.929 566.135C124.035 566.559 124.035 566.983 124.087 567.354C124.079 567.541 124.052 567.741 124.013 567.943C123.786 567.873 123.545 567.835 123.297 567.835H94.6532L42.0972 528.671ZM235.302 567.87C235.093 567.811 234.872 567.779 234.643 567.779H150.471C150.139 567.779 149.823 567.846 149.537 567.967C149.386 567.636 149.302 567.268 149.302 566.879L151.624 536.042C151.553 534.983 163.528 534.471 187.547 534.506C188.13 534.506 188.66 534.665 189.137 535.036C195.175 541.5 200.949 545.103 205.134 547.222C208.365 548.864 219.171 553.421 224.045 555.646C226.534 556.759 228.918 558.083 231.249 559.514C231.408 559.62 231.514 559.673 231.673 559.832C232.891 560.944 234.745 562.958 235.434 565.342C235.54 565.66 235.54 565.925 235.593 566.243C235.646 566.508 235.593 566.773 235.593 567.038V567.091C235.534 567.37 235.435 567.632 235.302 567.87Z" fill="#474961"/>
<path d="M86.631 447.124L65.3049 450.408C47.298 453.307 27.0209 439.525 24.3895 419.793C24.1315 418.064 24.0283 416.335 24.0283 414.606C24.0283 398.231 25.0845 380.74 41.8765 377.075C58.6685 373.41 169.983 376.058 182.84 376.058C195.697 376.058 200.329 381.121 205.008 388.578C209.687 396.035 208.277 408.792 207.09 416.827C204.975 431.321 203.891 442.407 203.478 454.257C203.375 456.749 203.22 459.393 203.066 462.343C202.137 479.939 201.311 487.211 199.763 510.045C199.196 519.097 198.731 526.929 198.37 532.879C198.216 535.829 195.687 538.168 192.695 538.168H189.651L147.218 538.321C144.019 538.321 141.388 535.727 141.491 532.574L142.059 511.469L142.42 498.857C142.622 491.773 142.823 484.216 143.025 476.53C138.205 482.636 133.811 488.248 129.845 493.367C126.633 497.586 122.954 502.432 118.367 508.544C112.276 516.651 107.137 523.644 103.218 529.049C101.501 531.368 98.3631 532.144 95.653 531.056C95.2363 530.896 94.8291 530.692 94.4382 530.443L91.5248 528.536L71.3956 515.661L55.0274 505.17C51.902 503.157 51.0015 499.13 53.0144 496.216L66.3103 476.824L74.256 465.221C77.064 461.106 81.189 455.074 86.631 447.124Z" fill="#68D5F9"/>
<path opacity="0.176986" d="M142.854 476.729C132.793 489.475 124.6 500.063 118.274 508.492C112.183 516.598 107.044 523.592 103.124 528.996C101.164 531.645 97.3505 532.281 94.437 530.427L91.5236 528.519L71.3944 515.644L55.0262 505.154C51.9009 503.14 51.0004 499.114 53.0133 496.2L66.3091 476.808L74.2549 465.204C77.0779 461.068 81.232 454.993 86.7171 446.98L143.856 438.18V439.657L143.495 452.27C143.281 460.3 143.068 468.59 142.854 476.729L142.854 476.729Z" fill="#444444"/>
<path d="M151.757 425.835C149.157 429.769 148.378 430.841 147.587 431.727C146.709 432.708 145.881 433.848 143.229 437.862C142.906 438.35 143.04 439.008 143.528 439.33C144.016 439.653 144.673 439.519 144.996 439.031C147.596 435.097 148.375 434.025 149.166 433.139C150.044 432.157 150.872 431.017 153.524 427.004C153.847 426.515 153.713 425.858 153.225 425.535C152.737 425.212 152.08 425.347 151.757 425.835Z" fill="#482D1F"/>
<path d="M111.8 314.037C119.587 308.209 139.716 292.367 139.716 292.367C146.285 298.301 130.499 308.951 130.499 308.951" fill="#482D1F"/>
<mask id="mask0_483_2660" style="mask-type:alpha" maskUnits="userSpaceOnUse" x="22" y="265" width="89" height="116">
<path d="M83.931 268.245C85.5892 268.768 87.2622 269.484 88.9178 270.439C95.2214 274.095 98.2408 278.81 103.803 288.4C108.464 296.348 112.596 303.501 109.63 308.269C107.658 311.434 103.248 312.262 100.28 312.494L100.148 324.8V325.33L99.8829 351.715C99.4535 360.241 98.9238 367.176 98.2938 372.519C97.3487 380.534 36.8456 383.838 36.8456 374.645C35.4154 371.148 34.9398 359.822 34.9928 355.795L35.4255 316.802C34.7419 316.867 34.0506 316.944 33.3507 317.034C30.3843 317.034 25.7758 316.472 23.5509 313.099C20.3197 308.265 24.0277 300.452 28.1595 291.682C33.1388 281.171 35.2814 275.173 41.9321 271.727C44.8239 270.228 47.2293 269.488 49.1483 269.507C53.0877 267.188 57.6471 265.901 62.485 265.989L74.1388 266.201C77.6078 266.238 80.9104 266.961 83.931 268.245Z" fill="#3EDB85"/>
</mask>
<g mask="url(#mask0_483_2660)">
<path d="M83.931 268.245C85.5892 268.768 87.2622 269.484 88.9178 270.439C95.2214 274.095 98.2408 278.81 103.803 288.4C108.464 296.348 112.596 303.501 109.63 308.269C107.658 311.434 103.248 312.262 100.28 312.494L100.148 324.8V325.33L99.8829 351.715C99.4535 360.241 98.9238 367.176 98.2938 372.519C97.3487 380.534 36.8456 383.838 36.8456 374.645C35.4154 371.148 34.9398 359.822 34.9928 355.795L35.4255 316.802C34.7419 316.867 34.0506 316.944 33.3507 317.034C30.3843 317.034 25.7758 316.472 23.5509 313.099C20.3197 308.265 24.0277 300.452 28.1595 291.682C33.1388 281.171 35.2814 275.173 41.9321 271.727C44.8239 270.228 47.2293 269.488 49.1483 269.507C53.0877 267.188 57.6471 265.901 62.485 265.989L74.1388 266.201C77.6078 266.238 80.9104 266.961 83.931 268.245Z" fill="#3EDB85"/>
</g>
<path opacity="0.2" d="M71.1729 266.331C76.1972 265.872 82.9812 267.015 88.9157 270.439C95.2193 274.094 98.3219 279.019 103.884 288.609C108.545 296.556 112.594 303.5 109.628 308.268C107.677 311.4 103.339 312.243 100.373 312.486L100.557 295.474V294.52C100.768 279.155 89.0088 266.545 74.2297 266.386L71.1729 266.331V266.331Z" fill="#8C2A00"/>
<path d="M155.533 320.511L155.506 325.24C155.531 327.235 153.515 328.601 151.658 327.844L147.295 326.052L126.734 295.31C125.884 294.03 126.249 292.266 127.528 291.415L131.13 288.984C132.41 288.134 134.174 288.499 135.024 289.778L155.533 320.511Z" fill="#FFBB43"/>
<path d="M125.548 306.404L140.061 297.575C141.394 296.786 143.116 297.355 143.883 298.873L144.587 300.214C145.138 301.343 145.021 302.629 144.423 303.581C145.498 303.498 146.527 304.133 147.052 305.319L147.758 306.699C148.419 308.087 148.125 309.706 147.195 310.69C148.487 310.104 150.049 310.694 150.772 312.171L151.476 313.508C152.246 315.08 151.71 316.96 150.38 317.806L141.76 323.034C130.88 330.827 120.681 337.752 111.164 343.809L111.685 348.058C123.263 349.804 139.198 352.211 159.492 355.278L159.713 355.311C163.425 354.994 166.662 355.551 168.873 356.008C174.418 355.452 179.907 354.845 185.398 354.292C189.843 352.997 199.818 350.88 200.469 357.219C200.469 357.219 196.189 358.612 190.393 360.456C182.195 363.063 170.916 366.629 164.546 368.662L164.319 368.67L138.075 375.708L95.7248 375.618C95.6781 375.447 95.6315 375.276 95.5852 375.107C97.1725 374.304 98.128 373.422 98.2535 372.476C98.9614 367.136 99.4915 360.195 99.8439 351.65L99.8525 350.791C86.7042 358.64 75.0239 364.619 64.8118 368.729C58.773 371.166 52.8402 373.339 47.0663 375.246C33.6115 377.895 27.8954 370.307 26.3592 368.77C24.5582 366.969 20.9032 361.935 27.5246 332.159C28.7829 326.507 30.0987 321.396 31.3489 316.917C32.0467 316.98 32.7108 317.003 33.3084 317.003C46.1898 315.334 56.1507 318.313 68.6126 317.311C67.0813 321.218 65.092 325.902 62.6447 331.364C74.9337 327.151 87.4487 322.429 100.19 317.196L100.242 312.388C102.261 312.231 104.948 311.797 107.081 310.54C107.085 310.562 107.089 310.585 107.092 310.608L107.525 314.137C113.366 311.665 119.254 309.088 125.189 306.405C125.268 306.365 125.388 306.365 125.548 306.404ZM61.4336 265.686C62.5885 262.65 63.7238 259.965 64.9324 256.77C64.9284 256.768 64.9251 256.766 64.9225 256.764L66.0371 247.526C65.9312 246.943 65.4522 247.174 64.9225 247.015C63.5453 246.644 62.3499 245.495 61.3964 244.435C59.6483 242.422 59.3605 239.492 60.2081 236.789C61.2675 234.193 64.022 232.233 66.5646 232.445C67.5181 232.551 68.4186 232.922 69.2662 233.451L69.3192 233.504C69.584 233.769 69.9548 233.822 70.3256 233.875C71.2261 233.875 71.9677 233.24 72.0207 232.339L72.4974 218.51C72.4974 217.61 73.1861 216.974 74.0866 216.974C76.0465 216.974 77.9535 216.868 79.9135 216.444C80.1783 216.444 80.3902 216.391 80.6021 216.391C82.5091 216.179 92.7326 215.543 98.2416 223.12C98.7184 223.862 99.1951 224.603 99.5659 225.345C100.519 227.252 100.943 229.372 100.784 231.597L100.202 241.24C100.096 242.194 99.9897 243.147 99.7778 244.154C97.2352 256.075 91.8321 264.341 87.2765 264.605C84.9458 264.658 82.615 264.394 80.3372 263.705C80.0539 263.563 80.2336 263.674 77.0499 262.386L76.3815 265.996C79.3651 266.562 82.4425 267.474 85.552 268.839C84.5455 270.164 83.4626 271.387 82.3502 272.235C70.2726 281.666 42.6031 271.496 47.38 269.551C49.7239 268.596 54.8201 266.59 61.4336 265.686Z" fill="#BF865F"/>
<path opacity="0.2" d="M100.177 350.456C103.733 348.331 107.397 346.069 111.168 343.671L111.718 348.096C119.423 349.283 135.398 351.693 159.643 355.327C159.651 355.326 159.659 355.325 159.667 355.325C163.47 354.966 166.788 355.604 169.042 356.071C174.587 355.514 179.903 354.847 185.395 354.293C189.84 352.998 199.815 350.882 200.465 357.221C199.928 357.409 196.511 358.457 190.715 360.301C182.518 362.908 171.238 366.474 164.868 368.507L164.641 368.514L138.398 375.553L96.0473 375.463C96.0005 375.292 95.954 375.121 95.9077 374.951C97.495 374.148 98.4504 373.267 98.576 372.32C99.2838 366.981 99.814 360.039 100.166 351.495L100.177 350.456ZM100.514 316.894L100.564 312.233C102.476 312.084 104.986 311.687 107.058 310.578L107.482 313.988C105.152 314.974 102.829 315.942 100.514 316.894Z" fill="#8C2A00"/>
<path d="M223.305 342.854C223.729 344.496 222.775 346.139 221.133 346.563L147.609 366.378C145.967 366.802 144.325 365.848 143.901 364.206C143.477 362.563 144.43 360.921 146.073 360.497L219.597 340.681C221.186 340.311 222.881 341.264 223.305 342.854Z" fill="#474961"/>
<path d="M49.0516 232.187C49.1278 229.094 49.8156 224.984 52.527 221.586C53.6394 220.155 55.1226 219.096 56.7117 218.301C60.9494 216.182 64.1807 217.241 72.5502 217.029C74.2453 217.029 76.7349 216.764 79.9132 216.446C82.0852 216.178 95.1575 214.508 98.2414 223.122C97.1537 222.91 94.5864 222.857 92.2026 223.44C81.9262 225.983 78.9068 243.786 74.1923 243.044C74.1475 243.038 74.0997 243.03 74.0493 243.019L74.0864 242.991L71.8086 236.739C71.2789 235.467 70.3784 234.461 69.3189 233.613C68.4714 233.083 67.5709 232.712 66.6174 232.606C64.0748 232.394 61.3202 234.355 60.2608 236.951C59.2543 239.547 59.7311 242.461 61.5851 244.474C62.7505 245.799 64.3396 246.7 66.0877 247.018L66.22 247.015C65.8844 250.979 65.3823 256.305 64.8855 257.035C64.0938 259.113 63.3421 260.928 62.5933 262.784C61.5259 262.697 60.5785 262.606 59.837 262.542C57.5063 262.33 54.0631 262.065 49.7195 261.8C49.7195 261.8 49.4016 261.8 49.1368 261.747C47.7595 261.535 46.4352 261.323 45.1109 260.634C45.1109 260.634 44.6872 260.475 44.3164 260.157C36.8474 254.011 35.2053 245.216 38.3836 240.289C40.6613 236.845 45.1109 235.52 45.7466 235.308C46.5941 235.043 47.4417 234.938 48.1833 234.885C48.4727 234.016 48.7622 233.104 49.0516 232.187ZM92.7324 238.434C91.6729 238.699 89.9249 238.964 88.4946 238.593C86.005 238.064 88.3357 236.58 90.6135 236.474C91.6729 236.421 92.5205 236.845 93.0502 237.269C93.421 237.64 93.2621 238.328 92.7324 238.434ZM101.738 238.222C100.678 238.593 99.036 239.07 97.4998 238.805C94.9042 238.434 97.129 236.739 99.3538 236.474C100.519 236.315 101.314 236.686 101.896 237.057C102.373 237.375 102.267 238.064 101.738 238.222Z" fill="#482D1F"/>
<path d="M97.8171 244.898C97.3404 244.262 97.4993 242.832 97.6582 241.878C97.7112 241.189 98.3469 240.766 98.9295 240.766C99.3003 240.819 99.7771 241.031 99.883 241.772C100.254 243.521 98.4528 245.958 97.8171 244.898ZM89.0768 244.951C88.5471 244.315 88.759 242.832 88.9179 241.931C88.9709 241.242 89.6066 240.819 90.1892 240.819C90.56 240.872 91.0368 241.084 91.1427 241.825C91.5135 243.574 89.7655 246.011 89.0768 244.951Z" fill="#482D1F"/>
<path d="M97.2832 240.89C97.3225 240.6 97.1194 240.333 96.8295 240.294C96.5396 240.255 96.2727 240.458 96.2334 240.748L95.8096 243.874L95.8048 243.94L95.7524 249.555C95.7323 249.618 95.6822 249.659 95.6129 249.666C94.9485 249.596 94.1491 249.597 93.2121 249.669C92.9203 249.691 92.7019 249.946 92.7242 250.237C92.7465 250.529 93.001 250.748 93.2927 250.725C94.1869 250.657 94.9351 250.657 95.5344 250.724L95.5929 250.727C96.2116 250.727 96.7065 250.287 96.8041 249.701L96.8113 249.619L96.8639 243.983L97.2832 240.89Z" fill="#482D1F"/>
<path d="M92.624 254.804C92.2532 254.751 91.2997 254.539 91.0878 253.956C91.0878 253.85 90.9819 253.691 91.0349 253.585C91.1938 253.32 92.8359 253.32 92.8359 253.32C95.0077 253.373 95.5374 253.267 95.6963 253.532C95.7493 253.691 95.7493 253.903 95.3785 254.38C94.9018 255.281 93.1537 254.963 92.624 254.804Z" fill="#482D1F"/>
<path d="M62.3105 330.646C62.7091 330.462 63.181 330.636 63.3646 331.035C63.5482 331.434 63.3739 331.906 62.9753 332.089L46.1833 339.825C45.7847 340.008 45.3128 339.834 45.1292 339.435C44.9456 339.037 45.1199 338.565 45.5185 338.381L62.3105 330.646ZM71.4815 306.2C71.3354 305.786 71.5525 305.332 71.9663 305.186C72.3801 305.04 72.834 305.257 72.98 305.671C73.0172 305.776 73.0792 305.964 73.1578 306.223C73.2874 306.651 73.4167 307.125 73.5373 307.634C73.8668 309.025 74.0718 310.415 74.0908 311.726C74.1494 315.787 72.3952 318.387 68.3533 318.334C67.9145 318.328 67.5635 317.967 67.5693 317.528C67.5751 317.089 67.9356 316.738 68.3743 316.744C71.3583 316.784 72.549 315.019 72.5018 311.749C72.4847 310.568 72.2958 309.287 71.991 308.001C71.8783 307.525 71.7575 307.082 71.6371 306.685C71.5657 306.45 71.511 306.284 71.4815 306.2Z" fill="#482D1F"/>
<path d="M77.1559 262.327L72.8652 260.578L75.4079 270.168L77.1559 262.327Z" fill="#482D1F"/>
<path d="M449.224 372.375H24.9224C22.8745 372.375 21.2144 374.035 21.2144 376.084C21.2144 378.132 22.8745 379.793 24.9224 379.793H449.224C451.272 379.793 452.932 378.132 452.932 376.084C452.932 374.035 451.272 372.375 449.224 372.375Z" fill="#FEFEFE"/>
<path d="M255.211 177.474H145.503C141.195 177.474 137.677 173.716 137.677 169.115V91.9292C137.677 87.328 141.195 83.5703 145.503 83.5703H255.211C259.519 83.5703 263.037 87.328 263.037 91.9292V169.077C263.037 173.716 259.519 177.474 255.211 177.474Z" fill="#FEFEFE"/>
<path d="M173.745 135.701C179.492 135.701 184.15 131.123 184.15 125.476C184.15 119.828 179.492 115.25 173.745 115.25C167.998 115.25 163.34 119.828 163.34 125.476C163.34 131.123 167.998 135.701 173.745 135.701Z" fill="#FFBB43"/>
<path d="M199.51 135.701C205.257 135.701 209.915 131.123 209.915 125.476C209.915 119.828 205.257 115.25 199.51 115.25C193.763 115.25 189.104 119.828 189.104 125.476C189.104 131.123 193.763 135.701 199.51 135.701Z" fill="#3EDB85"/>
<path d="M225.277 135.701C231.024 135.701 235.683 131.123 235.683 125.476C235.683 119.828 231.024 115.25 225.277 115.25C219.531 115.25 214.872 119.828 214.872 125.476C214.872 131.123 219.531 135.701 225.277 135.701Z" fill="#A339FF"/>
<path d="M235.468 152.258H165.535C164.459 152.258 163.587 153.13 163.587 154.206C163.587 155.281 164.459 156.153 165.535 156.153H235.468C236.544 156.153 237.416 155.281 237.416 154.206C237.416 153.13 236.544 152.258 235.468 152.258Z" fill="#68D5F9"/>
<path d="M235.347 144.469H165.656C164.514 144.469 163.587 145.395 163.587 146.538C163.587 147.681 164.514 148.608 165.656 148.608H235.347C236.489 148.608 237.416 147.681 237.416 146.538C237.416 145.395 236.489 144.469 235.347 144.469Z" fill="#68D5F9"/>
<path d="M137.325 88.4657C137.325 85.5075 139.722 83.1094 142.682 83.1094H257.575C260.534 83.1094 262.932 85.5068 262.932 88.4657V93.822H137.325V88.4657Z" fill="#68D5F9"/>
<path d="M144.634 90.8993C145.934 90.8993 146.987 89.8638 146.987 88.5864C146.987 87.309 145.934 86.2734 144.634 86.2734C143.334 86.2734 142.28 87.309 142.28 88.5864C142.28 89.8638 143.334 90.8993 144.634 90.8993Z" fill="#FF5645"/>
<path d="M152.314 90.8993C153.613 90.8993 154.667 89.8638 154.667 88.5864C154.667 87.309 153.613 86.2734 152.314 86.2734C151.014 86.2734 149.96 87.309 149.96 88.5864C149.96 89.8638 151.014 90.8993 152.314 90.8993Z" fill="#FFBB43"/>
<path d="M160.241 90.8993C161.541 90.8993 162.595 89.8638 162.595 88.5864C162.595 87.309 161.541 86.2734 160.241 86.2734C158.941 86.2734 157.888 87.309 157.888 88.5864C157.888 89.8638 158.941 90.8993 160.241 90.8993Z" fill="#3ABF7C"/>
<path d="M280.012 370.528C280.539 371.461 281.541 372.091 282.688 372.091H358.808C360.503 372.091 361.827 370.714 361.827 369.018C361.827 367.323 360.45 365.945 358.808 365.945H284.767L258.956 296.484C258.374 294.895 256.626 294.1 255.037 294.683C253.447 295.266 252.653 297.014 253.235 298.604L279.774 370.025C279.839 370.203 279.919 370.371 280.012 370.528Z" fill="#474961"/>
<path d="M320.579 23.9032L320.961 25L321.989 24.46C325.729 22.4953 329.989 21.3829 334.512 21.3829C349.389 21.3829 361.447 33.4249 361.447 48.2761C361.447 48.849 361.43 49.4175 361.394 49.9813L361.316 51.2251L362.547 51.0317C364.156 50.7791 365.805 50.6479 367.485 50.6479C384.892 50.6479 399 64.7371 399 82.1137C399 93.9977 392.402 104.345 382.658 109.7L381.729 110.21L382.292 111.108C384.754 115.03 386.177 119.667 386.177 124.639C386.177 134.854 380.166 143.67 371.478 147.749L370.656 148.135L370.961 148.99C371.917 151.668 372.438 154.553 372.438 157.562C372.438 162.935 370.777 167.918 367.938 172.029L367.471 172.706L368.045 173.295C370.765 176.082 372.438 179.887 372.438 184.084C372.438 187.233 371.497 190.159 369.879 192.601L369.347 193.404L370.13 193.966C372.103 195.38 373.354 197.604 373.354 200.088C373.354 204.285 369.752 207.776 365.195 207.776C360.778 207.776 357.254 204.492 357.046 200.469L356.999 199.571L356.101 199.522C352.011 199.302 348.343 197.496 345.7 194.708L344.845 193.805L344.147 194.835C338.48 203.197 328.896 208.691 318.026 208.691C309.682 208.691 302.098 205.455 296.46 200.17L295.635 199.397L294.968 200.31C289.236 208.163 279.956 213.263 269.482 213.263C264.437 213.263 259.671 212.08 255.445 209.978L254.828 209.671L254.321 210.138C249.762 214.349 243.667 216.921 236.967 216.921C231.836 216.921 227.061 215.413 223.059 212.817L222.478 212.44L221.921 212.851C217.676 215.984 212.427 217.836 206.742 217.836C197.137 217.836 188.768 212.547 184.399 204.723L183.939 203.899L183.09 204.311C179.721 205.945 175.938 206.862 171.937 206.862C162.268 206.862 153.853 201.503 149.509 193.594L149.129 192.903L148.369 193.11C146.104 193.728 143.718 194.058 141.254 194.058C137.512 194.058 133.95 193.297 130.714 191.922L129.983 191.611L129.515 192.253C126.698 196.12 122.134 198.631 116.982 198.631C115.534 198.631 114.135 198.433 112.808 198.063L111.992 197.835L111.633 198.604C110.379 201.293 107.52 203.203 104.159 203.203C99.6026 203.203 96 199.712 96 195.515C96 192.226 98.2027 189.38 101.357 188.293L102.233 187.991L101.999 187.094C101.67 185.842 101.495 184.527 101.495 183.169C101.495 175.813 106.642 169.654 113.539 168.091L114.317 167.915L114.318 167.117C114.325 163.456 115.064 159.968 116.395 156.79L116.709 156.041L116.041 155.58C107.805 149.902 102.411 140.414 102.411 129.669C102.411 117.516 109.312 106.969 119.421 101.727L120.37 101.235L119.817 100.321C117.489 96.4755 116.15 91.9672 116.15 87.1436C116.15 73.5583 126.783 62.4494 140.195 61.6664L141.277 61.6032L141.127 60.5295C140.964 59.3649 140.88 58.1746 140.88 56.9641C140.88 42.8705 152.323 31.4428 166.441 31.4428C168.754 31.4428 170.994 31.7492 173.122 32.323L174.053 32.5739L174.338 31.6533C178.312 18.8183 190.292 9.49406 204.452 9.49406C212.61 9.49406 220.042 12.5876 225.638 17.6651L226.485 18.4328L227.133 17.4924C231.992 10.4497 240.122 5.83594 249.332 5.83594C258.467 5.83594 266.539 10.375 271.411 17.321L272.23 18.4882L273.048 17.321C277.92 10.375 285.993 5.83594 295.128 5.83594C306.907 5.83594 316.921 13.3851 320.579 23.9032Z" stroke="#FEFEFE" stroke-width="2"/>
</svg>
