<svg width="355" height="464" viewBox="0 0 355 464" fill="none" xmlns="http://www.w3.org/2000/svg">
<circle cx="238.5" cy="116.734" r="116" fill="#F85729"/>
<path d="M196.289 350.75V462.673H208.998L219.521 375.898C220.249 369.887 223.153 364.352 227.684 360.337C232.215 356.322 238.06 354.105 244.115 354.106C250.169 354.103 256.015 356.319 260.547 360.335C265.079 364.35 267.982 369.887 268.709 375.898L279.231 462.712H291.979V330.097C291.98 325.172 291.01 320.296 289.127 315.746C287.243 311.196 284.481 307.061 280.999 303.579C277.517 300.096 273.384 297.333 268.834 295.449C264.284 293.564 259.408 292.594 254.483 292.594C246.843 292.59 239.277 294.091 232.217 297.012C225.158 299.932 218.742 304.215 213.338 309.616C207.934 315.016 203.647 321.429 200.722 328.487C197.796 335.544 196.29 343.109 196.289 350.75Z" fill="#262626"/>
<path d="M209.927 219.633C209.927 219.633 82.5232 263.656 29.5941 449.97L7.36328 462.671H48.6535L145.883 325.529C145.883 325.529 192.315 319.887 218.348 312.128C254.358 301.405 209.927 219.633 209.927 219.633Z" fill="#CCE3EA"/>
<path d="M209.927 219.633C209.927 219.633 82.5232 263.656 29.5941 449.97L7.36328 462.671H48.6535L145.883 325.529C145.883 325.529 192.315 319.887 218.348 312.128C254.358 301.405 209.927 219.633 209.927 219.633Z" fill="#CCE3EA"/>
<path d="M50.9105 423.157C54.0778 423.157 56.6453 420.589 56.6453 417.422C56.6453 414.255 54.0778 411.688 50.9105 411.688C47.7433 411.688 45.1758 414.255 45.1758 417.422C45.1758 420.589 47.7433 423.157 50.9105 423.157Z" fill="#32B8ED"/>
<path d="M47.1683 451.72C50.3355 451.72 52.9031 449.152 52.9031 445.985C52.9031 442.818 50.3355 440.25 47.1683 440.25C44.0011 440.25 41.4336 442.818 41.4336 445.985C41.4336 449.152 44.0011 451.72 47.1683 451.72Z" fill="#32B8ED"/>
<path d="M38.7234 434.325C39.7026 433.983 40.5259 433.3 41.0428 432.4C41.5597 431.501 41.7357 430.446 41.5386 429.427C41.3415 428.409 40.7844 427.496 39.9692 426.854C39.1541 426.213 38.1353 425.886 37.0992 425.934C36.2473 428.439 35.4082 430.971 34.582 433.532C35.1463 434.008 35.8236 434.332 36.5489 434.47C37.2742 434.609 38.0231 434.559 38.7234 434.325Z" fill="#9DC7D1"/>
<path d="M78.3337 416.376C77.6517 416.604 77.0374 416.998 76.5464 417.524C76.0555 418.049 75.7034 418.688 75.5222 419.384C75.341 420.08 75.3364 420.81 75.5088 421.508C75.6812 422.206 76.0251 422.85 76.5094 423.381L81.382 416.499C80.4147 416.089 79.3309 416.045 78.3337 416.376Z" fill="#9DC7D1"/>
<path d="M66.2191 429.055C69.3863 429.055 71.9539 426.488 71.9539 423.321C71.9539 420.153 69.3863 417.586 66.2191 417.586C63.0519 417.586 60.4844 420.153 60.4844 423.321C60.4844 426.488 63.0519 429.055 66.2191 429.055Z" fill="#F275A8"/>
<path d="M60.0004 407.196C63.1676 407.196 65.7351 404.629 65.7351 401.461C65.7351 398.294 63.1676 395.727 60.0004 395.727C56.8332 395.727 54.2656 398.294 54.2656 401.461C54.2656 404.629 56.8332 407.196 60.0004 407.196Z" fill="#F275A8"/>
<path d="M59.114 443.759C60.9676 443.759 62.4702 442.257 62.4702 440.403C62.4702 438.549 60.9676 437.047 59.114 437.047C57.2604 437.047 55.7578 438.549 55.7578 440.403C55.7578 442.257 57.2604 443.759 59.114 443.759Z" fill="#262626"/>
<path d="M67.9661 413.432C68.9311 413.432 69.7135 412.65 69.7135 411.685C69.7135 410.72 68.9311 409.938 67.9661 409.938C67.0011 409.938 66.2188 410.72 66.2188 411.685C66.2188 412.65 67.0011 413.432 67.9661 413.432Z" fill="#262626"/>
<path d="M48.9062 394.916C60.5211 401.498 72.861 406.708 85.678 410.442L145.881 325.53C145.881 325.53 192.314 319.887 218.347 312.128C254.357 301.405 209.926 219.633 209.926 219.633C209.926 219.633 108.34 254.75 48.9062 394.916Z" fill="#68D5F9"/>
<path d="M81.3828 401.269L137.245 315.718L183.669 292.594" stroke="#32B8ED" stroke-miterlimit="10"/>
<path d="M145.43 326.179L145.884 325.532C145.884 325.532 192.316 319.89 218.35 312.131C233.945 307.512 234.445 289.523 230.012 270.64C228.511 270.571 253.105 264.952 225.493 270.525C187.852 278.138 181.74 273.773 145.43 326.179Z" fill="#262626"/>
<path d="M275.344 252.132C271.225 214.067 250.28 214.491 233.684 217.046C233.184 217.131 232.683 217.2 232.144 217.269C225.801 218.139 193.725 222.658 174.258 284.124C153.39 349.977 224.293 433.458 224.293 433.458L218.427 456.605L247.139 436.822L218.289 312.12C218.289 312.12 281.348 307.648 275.344 252.132Z" fill="#CCE3EA"/>
<path d="M213.041 418.623C213.766 418.253 214.404 417.732 214.913 417.096C215.421 416.46 215.788 415.724 215.989 414.935C216.191 414.146 216.222 413.323 216.081 412.521C215.939 411.719 215.629 410.957 215.17 410.284C214.711 409.611 214.115 409.044 213.419 408.62C212.724 408.196 211.947 407.925 211.139 407.825C210.331 407.725 209.511 407.798 208.733 408.039C207.956 408.28 207.238 408.684 206.629 409.224C208.892 412.673 211.055 415.821 213.041 418.623Z" fill="#32B8ED"/>
<path d="M244.543 425.375C243.453 425.835 242.532 426.622 241.907 427.626C241.282 428.631 240.984 429.805 241.053 430.986C241.122 432.168 241.555 433.299 242.293 434.223C243.032 435.148 244.038 435.822 245.174 436.152C245.797 436.329 246.445 436.402 247.091 436.367L244.543 425.375Z" fill="#32B8ED"/>
<path d="M221.799 427.387C224.184 427.387 226.117 425.453 226.117 423.068C226.117 420.683 224.184 418.75 221.799 418.75C219.414 418.75 217.48 420.683 217.48 423.068C217.48 425.453 219.414 427.387 221.799 427.387Z" fill="#9DC7D1"/>
<path d="M238.971 401.297C238.356 401.837 237.91 402.542 237.685 403.329C237.528 403.874 237.479 404.445 237.543 405.008C237.606 405.572 237.78 406.117 238.055 406.614C238.329 407.11 238.699 407.547 239.143 407.9C239.587 408.253 240.096 408.515 240.641 408.671H240.68L238.971 401.297Z" fill="#9DC7D1"/>
<path d="M227.149 413.532C230.316 413.532 232.884 410.964 232.884 407.797C232.884 404.63 230.316 402.062 227.149 402.062C223.982 402.062 221.414 404.63 221.414 407.797C221.414 410.964 223.982 413.532 227.149 413.532Z" fill="#F275A8"/>
<path d="M203.057 403.675C203.82 403.359 204.505 402.883 205.067 402.279C205.628 401.674 206.053 400.956 206.311 400.172C206.57 399.389 206.656 398.559 206.565 397.739C206.473 396.919 206.206 396.129 205.781 395.421C205.356 394.714 204.783 394.107 204.102 393.642C203.421 393.176 202.648 392.863 201.835 392.723C201.021 392.584 200.188 392.621 199.391 392.833C198.593 393.046 197.851 393.427 197.215 393.952C199.178 397.363 201.141 400.611 203.057 403.675Z" fill="#F275A8"/>
<path d="M237.915 423.025C239.768 423.025 241.271 421.522 241.271 419.669C241.271 417.815 239.768 416.312 237.915 416.312C236.061 416.312 234.559 417.815 234.559 419.669C234.559 421.522 236.061 423.025 237.915 423.025Z" fill="#262626"/>
<path d="M214.915 404.182C215.88 404.182 216.663 403.4 216.663 402.435C216.663 401.47 215.88 400.688 214.915 400.688C213.95 400.688 213.168 401.47 213.168 402.435C213.168 403.4 213.95 404.182 214.915 404.182Z" fill="#262626"/>
<path d="M245.911 212.153C245.411 212.23 224.851 220.366 224.358 220.436C218.015 221.305 193.768 222.691 174.323 284.126C162.469 321.529 180.235 364.62 197.793 394.88H237.529L218.385 312.13C218.385 312.13 294.022 305.918 282.922 251.188C279.812 236.085 262.508 209.628 245.911 212.153Z" fill="#1EC1F7"/>
<path d="M245.913 212.15C245.413 212.227 224.852 220.363 224.36 220.433C218.399 220.986 212.701 223.152 207.879 226.699C218.802 230.547 234.959 233.003 253.01 233.003C260.158 233.014 267.301 232.61 274.402 231.795C267.112 220.456 256.374 210.534 245.913 212.15Z" fill="#262626"/>
<path d="M174.287 284.125C166.25 309.527 171.831 337.485 181.738 362.31" stroke="#262626" stroke-width="2" stroke-miterlimit="10" stroke-linecap="round"/>
<path d="M189.333 124.539L147.257 176.683L101.387 152.82L82.6203 150.511L77.2319 142.744H73.9296C73.6911 142.746 73.4566 142.805 73.2465 142.918C73.0364 143.031 72.8572 143.194 72.7244 143.392C72.5915 143.59 72.5092 143.818 72.4844 144.055C72.4597 144.292 72.4934 144.532 72.5825 144.753L76.847 155.183C77.2443 156.153 77.8729 157.011 78.6779 157.682C79.483 158.353 80.4401 158.816 81.4656 159.032L89.2172 160.641C93.5474 161.54 97.544 163.621 100.764 166.653L133.148 197.136C137.515 201.244 143.185 203.692 149.17 204.053C155.156 204.415 161.079 202.667 165.909 199.114L209.016 167.415L189.333 124.539Z" fill="#DB9E75"/>
<path d="M130.718 156.344L82.7158 150.532L56.5977 101.367" stroke="#262626" stroke-width="5" stroke-miterlimit="10" stroke-linecap="round"/>
<path d="M189.336 124.539L154.496 167.692C158.245 177.63 167.42 185.628 179.198 189.392L208.988 167.477L189.336 124.539Z" fill="#FFBB43"/>
<path d="M154.496 167.688C158.245 177.625 167.42 185.623 179.198 189.387" stroke="#FFFECF" stroke-width="4" stroke-miterlimit="10" stroke-linecap="round"/>
<path d="M204.621 157.945C192.974 158.453 183.668 169.492 183.668 183.117C183.666 184.078 183.715 185.039 183.814 185.996L208.986 167.475L204.621 157.945Z" fill="#262626"/>
<path d="M258.057 194.301C270.15 181.215 279.534 160.432 282.882 136.292L247.958 131.465C243.991 133.717 239.392 134.599 234.874 133.972C230.355 133.346 226.169 131.247 222.964 128.001L189.333 123.383C185.245 152.934 191.257 180.03 203.566 195.579C205.412 197.908 206.507 200.742 206.708 203.706C206.909 206.671 206.205 209.627 204.69 212.183C201.395 217.733 199.109 222.729 206.445 225.893C221.132 232.251 262.976 227.386 262.976 217.494C262.976 214.154 260.975 210.043 257.788 206.071C256.413 204.403 255.684 202.297 255.733 200.136C255.783 197.975 256.608 195.904 258.057 194.301Z" fill="#FFBB43"/>
<path d="M258.057 194.301C270.15 181.215 279.534 160.432 282.882 136.292L247.958 131.465C243.991 133.717 239.392 134.599 234.874 133.972C230.355 133.346 226.169 131.247 222.964 128.001L189.333 123.383C185.245 152.934 191.257 180.03 203.566 195.579C205.412 197.908 206.507 200.742 206.708 203.706C206.909 206.671 206.205 209.627 204.69 212.183C201.395 217.733 199.109 222.729 206.445 225.893C221.132 232.251 262.976 227.386 262.976 217.494C262.976 214.154 260.975 210.043 257.788 206.071C256.413 204.403 255.684 202.297 255.733 200.136C255.783 197.975 256.608 195.904 258.057 194.301Z" fill="#FFBB43"/>
<path d="M262.978 217.467C262.978 214.126 260.977 210.016 257.79 206.044C256.423 204.378 255.699 202.278 255.748 200.124C255.798 197.97 256.618 195.906 258.059 194.305" stroke="#262626" stroke-miterlimit="10" stroke-linecap="round"/>
<path d="M201.758 221.456C202.22 223.15 203.621 224.643 206.446 225.859C221.133 232.217 262.977 227.352 262.977 217.461" stroke="#262626" stroke-miterlimit="10" stroke-linecap="round"/>
<path d="M260.172 209.401C259.447 208.236 258.653 207.115 257.794 206.044C256.427 204.379 255.703 202.279 255.752 200.125C255.802 197.971 256.622 195.907 258.063 194.305C260.487 191.658 262.72 188.841 264.745 185.877C264.757 185.849 264.773 185.823 264.791 185.8C261.27 186.307 257.718 186.565 254.16 186.569C239.25 186.569 226.241 182.328 219.29 176.031C217.881 179.318 216.211 180.442 215.695 184.168C220.237 192.558 229.266 201.487 239.458 204.413C240.582 204.713 249.642 206.953 260.172 209.401Z" fill="#262626"/>
<path d="M221.443 176.221C223.857 176.221 225.815 174.264 225.815 171.849C225.815 169.434 223.857 167.477 221.443 167.477C219.028 167.477 217.07 169.434 217.07 171.849C217.07 174.264 219.028 176.221 221.443 176.221Z" fill="#68D5F9"/>
<path d="M228.06 189.041C230.474 189.041 232.432 187.084 232.432 184.669C232.432 182.254 230.474 180.297 228.06 180.297C225.645 180.297 223.688 182.254 223.688 184.669C223.688 187.084 225.645 189.041 228.06 189.041Z" fill="#68D5F9"/>
<path d="M241.294 189.041C243.709 189.041 245.666 187.084 245.666 184.669C245.666 182.254 243.709 180.297 241.294 180.297C238.879 180.297 236.922 182.254 236.922 184.669C236.922 187.084 238.879 189.041 241.294 189.041Z" fill="#68D5F9"/>
<path d="M254.536 189.041C256.951 189.041 258.908 187.084 258.908 184.669C258.908 182.254 256.951 180.297 254.536 180.297C252.122 180.297 250.164 182.254 250.164 184.669C250.164 187.084 252.122 189.041 254.536 189.041Z" fill="#68D5F9"/>
<path d="M292.685 194.789L286.034 144.516L258.038 159.98L262.102 176.145C262.121 176.216 262.12 176.29 262.1 176.36C262.08 176.43 262.042 176.493 261.989 176.543C261.937 176.594 261.872 176.629 261.801 176.645C261.73 176.662 261.656 176.66 261.587 176.638L231.273 168.117C226.945 166.901 223.275 164.019 221.066 160.103L218.949 156.347C218.825 156.116 218.641 155.922 218.416 155.787C218.191 155.651 217.934 155.579 217.671 155.577H217.063C216.751 155.577 216.441 155.64 216.154 155.763C215.867 155.885 215.607 156.065 215.391 156.291C215.175 156.517 215.007 156.785 214.898 157.077C214.788 157.37 214.739 157.682 214.754 157.994L214.908 162.043C214.912 162.166 214.885 162.287 214.827 162.396C214.77 162.504 214.686 162.595 214.582 162.661C214.478 162.726 214.359 162.763 214.237 162.768C214.115 162.774 213.993 162.746 213.884 162.69L199.12 155.077C198.648 154.822 198.107 154.722 197.575 154.793C197.042 154.863 196.546 155.1 196.156 155.469C195.91 155.715 195.718 156.01 195.594 156.334C195.469 156.659 195.414 157.007 195.433 157.354C195.452 157.701 195.544 158.041 195.703 158.35C195.862 158.659 196.085 158.932 196.357 159.149L205.201 166.208C205.834 166.708 206.261 167.423 206.402 168.217L207.588 174.66C208.028 177.028 209.047 179.252 210.554 181.132C212.061 183.012 214.008 184.49 216.224 185.436L272.956 209.692C275.264 210.672 277.789 211.026 280.277 210.72C282.765 210.413 285.129 209.456 287.129 207.945C289.13 206.433 290.697 204.422 291.672 202.112C292.648 199.803 292.997 197.277 292.685 194.789Z" fill="#DB9E75"/>
<path d="M230.295 186.544C233.679 186.544 236.423 183.8 236.423 180.416C236.423 177.032 233.679 174.289 230.295 174.289C226.911 174.289 224.168 177.032 224.168 180.416C224.168 183.8 226.911 186.544 230.295 186.544Z" fill="#FFBB43"/>
<path d="M232.991 185.913C231.981 186.413 230.851 186.623 229.728 186.518C228.605 186.414 227.533 185.999 226.633 185.32C226.759 187.055 227.103 188.767 227.657 190.416L234.269 193.241C233.409 190.924 232.973 188.47 232.983 185.998C232.982 185.969 232.985 185.941 232.991 185.913Z" fill="#257ED6"/>
<path d="M233.745 168.828C231.596 170.233 229.862 172.19 228.727 174.494C229.229 174.36 229.746 174.29 230.266 174.286C231.209 174.289 232.139 174.508 232.984 174.927C233.829 175.346 234.566 175.954 235.139 176.703C236.362 174.228 238.29 172.171 240.681 170.791L233.745 168.828Z" fill="#257ED6"/>
<path d="M234.247 193.244C233.386 190.926 232.951 188.472 232.961 186" stroke="#262626" stroke-miterlimit="10" stroke-linecap="round"/>
<path d="M235.168 176.709C236.391 174.234 238.319 172.177 240.71 170.797" stroke="#262626" stroke-miterlimit="10" stroke-linecap="round"/>
<path d="M207.57 174.711C208.011 177.08 209.03 179.303 210.537 181.183C212.043 183.063 213.991 184.542 216.207 185.488L259.583 204.031" stroke="#262626" stroke-miterlimit="10" stroke-linecap="round"/>
<path d="M288.418 162.562C284.777 158.513 277.387 155.742 268.882 155.742C267.711 155.742 266.572 155.796 265.448 155.896L258.059 159.976L262.123 176.141C262.138 176.204 262.138 176.27 262.123 176.333C262.107 176.396 262.076 176.454 262.033 176.503C261.99 176.551 261.936 176.588 261.875 176.611C261.814 176.634 261.749 176.642 261.684 176.634L269.713 178.897C273.895 180.119 278.372 179.847 282.376 178.127C285.755 176.626 288.341 174.578 289.719 172.215L288.418 162.562Z" fill="#262626"/>
<path d="M189.758 163.039C190.824 169.298 192.534 175.43 194.861 181.336" stroke="#262626" stroke-miterlimit="10" stroke-linecap="round"/>
<path d="M214.655 61.1016C213.75 60.9741 212.874 60.6957 212.061 60.2779C210.725 59.6214 209.262 59.2641 207.773 59.2311C202.439 59.0771 198.005 62.8951 197.867 67.7601C197.826 69.1947 198.163 70.6148 198.844 71.8783C199.291 72.679 199.583 73.5563 199.706 74.4647C200.476 80.3227 205.864 84.9643 212.523 85.1568C219.843 85.3646 225.924 80.1225 226.117 73.4486C226.294 67.2212 221.275 61.9483 214.655 61.1016Z" fill="#482D1F"/>
<path d="M235.938 97.4588C239.273 93.9193 237.959 87.2635 233.003 82.5927C228.046 77.9219 221.324 77.0047 217.989 80.5443C214.653 84.0838 215.967 90.7396 220.924 95.4104C225.88 100.081 232.602 100.998 235.938 97.4588Z" fill="#FFBB43"/>
<path d="M251.589 81.6467C250.126 81.0353 248.704 80.3308 247.332 79.5375C239.188 74.865 219.574 75.8349 213.154 90.5759C203.64 112.445 227.564 116.402 227.564 116.402C233.961 118.349 226.548 108.658 225.101 108.034L224.97 105.032C229.396 104.792 233.686 103.42 237.429 101.046C241.172 98.6725 244.242 95.3774 246.346 91.4766C251.25 96.3646 250.611 109.951 250.611 109.951L251.196 110.451C272.01 99.5514 256.384 83.6557 251.589 81.6467Z" fill="#482D1F"/>
<path d="M229.969 77.6562C223.811 78.9341 217.83 82.2056 214.281 88.2482" stroke="#262626" stroke-miterlimit="10" stroke-linecap="round"/>
<path d="M243.355 89.4727C255.34 90.5888 252.592 101.019 252.592 101.019C251.728 104.397 251.293 107.87 251.299 111.357C251.422 118.531 248.397 123.058 242.162 123.889C234.557 124.905 227.906 121.056 226.428 112.727C226.259 111.773 226.089 110.803 225.874 109.856C224.765 104.799 222.417 87.5252 243.355 89.4727Z" fill="#DB9E75"/>
<path d="M227.646 116.634C227.089 115.406 226.688 114.113 226.453 112.785C226.283 111.831 226.114 110.861 225.898 109.914" stroke="#262626" stroke-miterlimit="10" stroke-linecap="round"/>
<path d="M226.308 106.261C229.719 105.938 233.806 104.106 237.809 101.558C244.198 97.4935 248.278 91.982 248.224 88.0023C246.878 87.4757 245.462 87.1515 244.021 87.0401C224.854 85.2543 225.246 99.9337 226.308 106.261Z" fill="#ED72A5"/>
<path d="M254.197 104.405C256.649 102.989 255.935 97.1617 252.602 91.3887C249.269 85.6158 244.579 82.0835 242.127 83.4992C239.675 84.9149 240.389 90.7424 243.722 96.5154C247.055 102.288 251.745 105.821 254.197 104.405Z" fill="#482D1F"/>
<path d="M241.62 84.0391H241.504C239.857 86.0559 240.735 91.2903 243.729 96.4939C244.338 97.5656 245.02 98.5943 245.769 99.5729C246.868 97.6393 247.426 95.4459 247.386 93.2224C247.386 88.1419 244.807 84.0391 241.62 84.0391Z" fill="#262626"/>
<path d="M238.839 100.897C246.66 95.9241 251.021 88.781 248.581 84.9424C246.14 81.1038 237.821 82.0232 230.001 86.996C222.18 91.9688 217.818 99.1118 220.259 102.95C222.7 106.789 231.019 105.87 238.839 100.897Z" fill="#482D1F"/>
<path d="M238.096 99.7993C236.571 99.3736 234.938 99.5672 233.555 100.338" stroke="#262626" stroke-miterlimit="10" stroke-linecap="round"/>
<path d="M243.897 101.71C243.681 102.85 243.489 103.927 243.358 105.02C243.239 105.566 243.2 106.126 243.243 106.683C243.323 107.236 243.532 107.763 243.851 108.223C244.003 108.449 244.173 108.662 244.359 108.861C244.585 109.107 244.756 109.398 244.859 109.716C244.951 110.092 244.893 110.49 244.697 110.824C244.519 111.118 244.277 111.368 243.989 111.556C243.441 111.915 242.786 112.076 242.134 112.01C241.822 111.989 241.519 111.893 241.251 111.731C240.984 111.569 240.758 111.345 240.595 111.078C240.589 111.071 240.586 111.061 240.586 111.051C240.586 111.042 240.589 111.032 240.595 111.025H240.641C241.069 111.343 241.606 111.479 242.134 111.402C242.631 111.356 243.107 111.178 243.512 110.886C243.92 110.586 244.213 110.255 244.143 109.878C244.082 109.644 243.981 109.422 243.843 109.223C243.69 108.965 243.563 108.692 243.466 108.407C243.269 107.857 243.11 107.294 242.989 106.722C242.842 106.149 242.749 105.564 242.711 104.974C242.722 103.784 243.11 102.627 243.82 101.672H243.874C243.874 101.672 243.897 101.695 243.897 101.71Z" fill="#262626"/>
<path d="M247.423 106.993C247.941 106.972 248.343 106.484 248.32 105.902C248.298 105.32 247.859 104.865 247.341 104.885C246.822 104.905 246.421 105.394 246.444 105.976C246.466 106.558 246.905 107.013 247.423 106.993Z" fill="#262626"/>
<path d="M245.637 100.624C246.919 100.383 248.245 100.659 249.324 101.394" stroke="#262626" stroke-miterlimit="10" stroke-linecap="round"/>
<path d="M247.655 111.974C248.573 111.974 249.318 111.229 249.318 110.311C249.318 109.393 248.573 108.648 247.655 108.648C246.737 108.648 245.992 109.393 245.992 110.311C245.992 111.229 246.737 111.974 247.655 111.974Z" fill="#FFBDD8"/>
<path d="M236.543 106.216C237.091 106.194 237.516 105.68 237.491 105.068C237.467 104.456 237.002 103.977 236.454 103.999C235.906 104.021 235.481 104.535 235.505 105.148C235.53 105.76 235.994 106.238 236.543 106.216Z" fill="#262626"/>
<path d="M233.224 110.932C234.193 110.932 234.979 110.146 234.979 109.177C234.979 108.208 234.193 107.422 233.224 107.422C232.255 107.422 231.469 108.208 231.469 109.177C231.469 110.146 232.255 110.932 233.224 110.932Z" fill="#FFBDD8"/>
<path d="M244.09 110.211C244.09 110.211 243.774 110.981 242.273 110.457C240.934 110.026 240.195 110.834 240.772 111.319C241.13 111.589 241.555 111.754 242.001 111.796C242.447 111.839 242.896 111.756 243.297 111.558C243.651 111.313 243.954 111.002 244.19 110.642" fill="#262626"/>
<path d="M237.324 112.641C237.771 112.748 238.094 112.879 238.471 112.995L239.472 113.333L240.473 113.68C240.855 113.807 241.231 113.956 241.596 114.126C241.245 114.394 240.822 114.552 240.38 114.58C239.948 114.622 239.512 114.57 239.102 114.426C238.681 114.299 238.298 114.07 237.988 113.758C237.678 113.446 237.45 113.062 237.324 112.641Z" fill="#262626"/>
<path d="M221.16 105.575C220.391 107.022 221.06 110.77 226.695 110.77L227.465 108.707C226.31 103.204 222.492 103.011 221.16 105.575Z" fill="#DB9E75"/>
<path d="M226.727 110.773C221.092 110.773 220.461 107.025 221.192 105.577C222.354 103.268 225.534 103.191 227.065 107.117" stroke="#262626" stroke-miterlimit="10" stroke-linecap="round"/>
<path d="M223.039 106.48C223.089 106.376 223.163 106.285 223.253 106.213C223.344 106.141 223.45 106.09 223.562 106.065C223.796 106.013 224.039 106.04 224.255 106.142C224.457 106.235 224.63 106.381 224.756 106.565C224.88 106.74 224.957 106.944 224.979 107.158C224.571 106.988 224.294 106.781 224.009 106.665C223.71 106.513 223.373 106.449 223.039 106.48Z" fill="#262626"/>
<path d="M250.278 130.246C248.112 131.895 245.644 133.101 243.012 133.796C240.381 134.491 237.638 134.66 234.941 134.295C232.244 133.93 229.646 133.037 227.294 131.667C224.942 130.298 222.883 128.478 221.234 126.312" stroke="#262626" stroke-miterlimit="10" stroke-linecap="round"/>
<path d="M193.521 146.605C200.829 146.605 206.754 140.681 206.754 133.373C206.754 126.065 200.829 120.141 193.521 120.141C186.213 120.141 180.289 126.065 180.289 133.373C180.289 140.681 186.213 146.605 193.521 146.605Z" fill="#FFBB43"/>
<path d="M275.342 159.129C282.65 159.129 288.574 153.204 288.574 145.896C288.574 138.588 282.65 132.664 275.342 132.664C268.034 132.664 262.109 138.588 262.109 145.896C262.109 153.204 268.034 159.129 275.342 159.129Z" fill="#FFBB43"/>
<path d="M153.442 168.891L145.883 178.251" stroke="#262626" stroke-miterlimit="10" stroke-linecap="round"/>
<path d="M286.035 144.516L254.867 156.97L260.055 173.136C264.674 173.574 268.099 173.751 271.656 173.751C277.698 173.77 283.728 173.223 289.668 172.119L286.035 144.516Z" fill="#FFBB43"/>
<path d="M260.055 173.126C264.673 173.564 268.099 173.741 271.655 173.741C277.697 173.762 283.727 173.218 289.668 172.117" stroke="#FFFECF" stroke-width="4" stroke-miterlimit="10" stroke-linecap="round"/>
<path d="M206.758 168.062L206.896 169.602C206.953 170.144 207.133 170.666 207.423 171.127C207.712 171.589 208.104 171.978 208.567 172.265L209.337 172.75" stroke="#262626" stroke-miterlimit="10" stroke-linecap="round"/>
<path d="M207.348 172.531L207.486 174.071C207.541 174.613 207.721 175.136 208.01 175.598C208.3 176.059 208.692 176.448 209.157 176.734L209.926 177.227" stroke="#262626" stroke-miterlimit="10" stroke-linecap="round"/>
<path d="M230.295 186.544C233.679 186.544 236.423 183.8 236.423 180.416C236.423 177.032 233.679 174.289 230.295 174.289C226.911 174.289 224.168 177.032 224.168 180.416C224.168 183.8 226.911 186.544 230.295 186.544Z" stroke="#262626" stroke-miterlimit="10" stroke-linecap="round"/>
<path d="M230.293 177.539V180.418H232.279" stroke="white" stroke-width="2" stroke-miterlimit="10" stroke-linecap="round"/>
<path d="M258.375 166.281L261.723 176.712" stroke="#262626" stroke-miterlimit="10" stroke-linecap="round"/>
<path d="M30.759 445.984C30.3664 447.308 29.9892 448.632 29.5966 449.972L7.79688 462.427L8.42038 462.673H48.656L60.4873 445.984H30.759Z" fill="#9CC967"/>
<path d="M8.41797 462.672H48.6536" stroke="#262626" stroke-width="2" stroke-miterlimit="10" stroke-linecap="round"/>
<path d="M224.35 433.482L218.484 456.629L247.197 436.846L245.765 430.688H222.048C223.511 432.496 224.35 433.482 224.35 433.482Z" fill="#9CC967"/>
<path d="M218.484 456.627L247.197 436.844" stroke="#262626" stroke-width="2" stroke-miterlimit="10" stroke-linecap="round"/>
<path d="M252.394 236.57C252.394 244.268 259.9 250.511 269.152 250.511C269.152 250.511 286.487 291.201 200.273 307.189L229.74 390.585" stroke="#7DFFF8" stroke-miterlimit="10"/>
<path d="M1.5 462.672H311.5" stroke="#262626" stroke-width="2" stroke-miterlimit="10" stroke-linecap="round"/>
<path d="M81.3347 102.873C83.9833 102.873 86.1303 100.725 86.1303 98.0769C86.1303 95.4283 83.9833 93.2812 81.3347 93.2812C78.6861 93.2812 76.5391 95.4283 76.5391 98.0769C76.5391 100.725 78.6861 102.873 81.3347 102.873Z" fill="#32B8ED"/>
<path d="M84.9185 121.345C86.2023 121.345 87.2431 120.304 87.2431 119.02C87.2431 117.736 86.2023 116.695 84.9185 116.695C83.6346 116.695 82.5938 117.736 82.5938 119.02C82.5938 120.304 83.6346 121.345 84.9185 121.345Z" fill="#FFBB43"/>
<path d="M95.8686 136.393C96.3957 136.393 96.8231 135.966 96.8231 135.439C96.8231 134.912 96.3957 134.484 95.8686 134.484C95.3414 134.484 94.9141 134.912 94.9141 135.439C94.9141 135.966 95.3414 136.393 95.8686 136.393Z" fill="#ADC7DB"/>
<path d="M85.5222 134.591C85.858 134.591 86.1303 134.319 86.1303 133.983C86.1303 133.647 85.858 133.375 85.5222 133.375C85.1863 133.375 84.9141 133.647 84.9141 133.983C84.9141 134.319 85.1863 134.591 85.5222 134.591Z" fill="#ADC7DB"/>
<path d="M77.1318 122.529C77.4591 122.529 77.7245 122.264 77.7245 121.936C77.7245 121.609 77.4591 121.344 77.1318 121.344C76.8044 121.344 76.5391 121.609 76.5391 121.936C76.5391 122.264 76.8044 122.529 77.1318 122.529Z" fill="#ADC7DB"/>
<path d="M74.7241 109.425C75.3916 109.425 75.9327 108.884 75.9327 108.216C75.9327 107.549 75.3916 107.008 74.7241 107.008C74.0567 107.008 73.5156 107.549 73.5156 108.216C73.5156 108.884 74.0567 109.425 74.7241 109.425Z" fill="#ADC7DB"/>
<path d="M96.6642 92.5472C98.9727 92.5472 100.844 90.6758 100.844 88.3673C100.844 86.0589 98.9727 84.1875 96.6642 84.1875C94.3557 84.1875 92.4844 86.0589 92.4844 88.3673C92.4844 90.6758 94.3557 92.5472 96.6642 92.5472Z" fill="#3EDB85"/>
<path d="M99.1759 116.953C100.473 116.953 101.524 115.902 101.524 114.606C101.524 113.309 100.473 112.258 99.1759 112.258C97.8793 112.258 96.8281 113.309 96.8281 114.606C96.8281 115.902 97.8793 116.953 99.1759 116.953Z" fill="#FFBB43"/>
<path d="M111.841 141.737C112.942 141.737 113.835 140.845 113.835 139.744C113.835 138.643 112.942 137.75 111.841 137.75C110.74 137.75 109.848 138.643 109.848 139.744C109.848 140.845 110.74 141.737 111.841 141.737Z" fill="#DB9E75"/>
<path d="M90.1597 145.101C90.3213 145.101 90.4522 144.97 90.4522 144.808C90.4522 144.647 90.3213 144.516 90.1597 144.516C89.9982 144.516 89.8672 144.647 89.8672 144.808C89.8672 144.97 89.9982 145.101 90.1597 145.101Z" fill="#ADC7DB"/>
<path d="M108.636 123.343C109.521 123.343 110.237 122.626 110.237 121.742C110.237 120.857 109.521 120.141 108.636 120.141C107.752 120.141 107.035 120.857 107.035 121.742C107.035 122.626 107.752 123.343 108.636 123.343Z" fill="#FFBB43"/>
</svg>
