<svg width="458" height="39" viewBox="0 0 458 39" fill="none" xmlns="http://www.w3.org/2000/svg">
<g filter="url(#filter0_i_483_2876)">
<mask id="path-1-inside-1_483_2876" fill="white">
<path d="M30.3717 4.09665L15.2565 0H15.1152L0 4.09665V17.0929C0.094176 19.4473 1.07361 24.919 4.23792 27.9703C7.40223 31.0216 12.8079 35.9281 15.1152 38H15.2565C17.5638 35.9281 22.9695 31.0216 26.1338 27.9703C29.2981 24.919 30.2776 19.4473 30.3717 17.0929V4.09665Z"/>
</mask>
<path d="M15.2565 0L16.3029 -3.86072C15.9618 -3.95316 15.6099 -4 15.2565 -4V0ZM30.3717 4.09665H34.3717C34.3717 2.2905 33.1614 0.708412 31.4181 0.235939L30.3717 4.09665ZM30.3717 17.0929L34.3685 17.2528C34.3707 17.1995 34.3717 17.1462 34.3717 17.0929H30.3717ZM26.1338 27.9703L23.3573 25.0909L23.3573 25.0909L26.1338 27.9703ZM15.2565 38V42C16.2431 42 17.1949 41.6354 17.929 40.9762L15.2565 38ZM15.1152 0V-4C14.7618 -4 14.41 -3.95316 14.0689 -3.86072L15.1152 0ZM0 4.09665L-1.04636 0.235939C-2.78963 0.708412 -4 2.2905 -4 4.09665H0ZM0 17.0929H-4C-4 17.1462 -3.99893 17.1995 -3.9968 17.2528L0 17.0929ZM4.23792 27.9703L7.01446 25.0909L7.01446 25.0909L4.23792 27.9703ZM15.1152 38L12.4427 40.9762C13.1768 41.6354 14.1286 42 15.1152 42V38ZM14.2101 3.86072L29.3254 7.95737L31.4181 0.235939L16.3029 -3.86072L14.2101 3.86072ZM26.3749 16.9331C26.3416 17.7671 26.1318 19.3673 25.5934 21.0542C25.044 22.776 24.273 24.2079 23.3573 25.0909L28.9104 30.8496C31.1589 28.6814 32.4599 25.8518 33.2148 23.4863C33.9808 21.086 34.3077 18.7732 34.3685 17.2528L26.3749 16.9331ZM23.3573 25.0909C20.249 28.0881 14.8902 32.9529 12.584 35.0238L17.929 40.9762C20.2374 38.9034 25.69 33.955 28.9104 30.8496L23.3573 25.0909ZM14.0689 -3.86072L-1.04636 0.235939L1.04636 7.95737L16.1616 3.86072L14.0689 -3.86072ZM-3.9968 17.2528C-3.93599 18.7732 -3.60901 21.086 -2.84301 23.4863C-2.08813 25.8518 -0.787204 28.6814 1.46138 30.8496L7.01446 25.0909C6.09873 24.2079 5.32778 22.776 4.77832 21.0542C4.23999 19.3673 4.03016 17.7671 3.9968 16.9331L-3.9968 17.2528ZM1.46137 30.8496C4.68176 33.955 10.1343 38.9034 12.4427 40.9762L17.7877 35.0238C15.4815 32.9529 10.1227 28.0881 7.01446 25.0909L1.46137 30.8496ZM26.3717 4.09665V17.0929H34.3717V4.09665H26.3717ZM-4 4.09665V17.0929H4V4.09665H-4ZM15.2565 -4H15.1152V4H15.2565V-4ZM15.2565 34H15.1152V42H15.2565V34Z" fill="#1EC1F7" mask="url(#path-1-inside-1_483_2876)"/>
</g>
<g filter="url(#filter1_i_483_2876)">
<path d="M15.2564 8.75781V25.992M6.49805 17.5162H23.7322" stroke="#1EC1F7" stroke-width="2"/>
</g>
<path d="M57.6356 38V4.4H70.0676C72.7556 4.4 74.9796 4.848 76.7396 5.744C78.4996 6.64 79.8116 7.872 80.6756 9.44C81.5396 11.008 81.9716 12.768 81.9716 14.72C81.9716 16.576 81.5556 18.288 80.7236 19.856C79.8916 21.392 78.5956 22.64 76.8356 23.6C75.0756 24.528 72.8196 24.992 70.0676 24.992H63.7796V38H57.6356ZM63.7796 20H69.6836C71.8276 20 73.3636 19.536 74.2916 18.608C75.2516 17.648 75.7316 16.352 75.7316 14.72C75.7316 13.056 75.2516 11.76 74.2916 10.832C73.3636 9.872 71.8276 9.392 69.6836 9.392H63.7796V20ZM86.7918 38V4.4H99.1278C101.816 4.4 104.024 4.864 105.752 5.792C107.512 6.688 108.824 7.92 109.688 9.488C110.552 11.024 110.984 12.736 110.984 14.624C110.984 16.672 110.44 18.544 109.352 20.24C108.296 21.936 106.632 23.168 104.36 23.936L111.32 38H104.264L98.0238 24.752H92.9358V38H86.7918ZM92.9358 20.24H98.7438C100.792 20.24 102.296 19.744 103.256 18.752C104.216 17.76 104.696 16.448 104.696 14.816C104.696 13.216 104.216 11.936 103.256 10.976C102.328 10.016 100.808 9.536 98.6958 9.536H92.9358V20.24ZM132.442 38.576C129.082 38.576 126.138 37.84 123.61 36.368C121.114 34.896 119.146 32.864 117.706 30.272C116.298 27.648 115.594 24.624 115.594 21.2C115.594 17.776 116.298 14.768 117.706 12.176C119.146 9.552 121.114 7.504 123.61 6.032C126.138 4.56 129.082 3.824 132.442 3.824C135.77 3.824 138.698 4.56 141.226 6.032C143.754 7.504 145.722 9.552 147.13 12.176C148.538 14.768 149.242 17.776 149.242 21.2C149.242 24.624 148.538 27.648 147.13 30.272C145.722 32.864 143.754 34.896 141.226 36.368C138.698 37.84 135.77 38.576 132.442 38.576ZM132.442 33.056C135.642 33.056 138.186 32 140.074 29.888C141.994 27.776 142.954 24.88 142.954 21.2C142.954 17.52 141.994 14.624 140.074 12.512C138.186 10.4 135.642 9.344 132.442 9.344C129.242 9.344 126.682 10.4 124.762 12.512C122.842 14.624 121.882 17.52 121.882 21.2C121.882 24.88 122.842 27.776 124.762 29.888C126.682 32 129.242 33.056 132.442 33.056ZM170.411 38.576C167.051 38.576 164.107 37.84 161.579 36.368C159.083 34.896 157.115 32.864 155.675 30.272C154.267 27.648 153.563 24.624 153.563 21.2C153.563 17.776 154.267 14.768 155.675 12.176C157.115 9.552 159.083 7.504 161.579 6.032C164.107 4.56 167.051 3.824 170.411 3.824C173.739 3.824 176.667 4.56 179.195 6.032C181.723 7.504 183.691 9.552 185.099 12.176C186.507 14.768 187.211 17.776 187.211 21.2C187.211 24.624 186.507 27.648 185.099 30.272C183.691 32.864 181.723 34.896 179.195 36.368C176.667 37.84 173.739 38.576 170.411 38.576ZM170.411 33.056C173.611 33.056 176.155 32 178.043 29.888C179.963 27.776 180.923 24.88 180.923 21.2C180.923 17.52 179.963 14.624 178.043 12.512C176.155 10.4 173.611 9.344 170.411 9.344C167.211 9.344 164.651 10.4 162.731 12.512C160.811 14.624 159.851 17.52 159.851 21.2C159.851 24.88 160.811 27.776 162.731 29.888C164.651 32 167.211 33.056 170.411 33.056ZM192.636 38V4.4H214.332V9.344H198.78V18.752H211.356V23.6H198.78V38H192.636ZM246.255 38.576C242.895 38.576 239.951 37.84 237.423 36.368C234.927 34.896 232.959 32.864 231.519 30.272C230.111 27.648 229.407 24.624 229.407 21.2C229.407 17.776 230.111 14.768 231.519 12.176C232.959 9.552 234.927 7.504 237.423 6.032C239.951 4.56 242.895 3.824 246.255 3.824C249.583 3.824 252.511 4.56 255.039 6.032C257.567 7.504 259.535 9.552 260.943 12.176C262.351 14.768 263.055 17.776 263.055 21.2C263.055 24.624 262.351 27.648 260.943 30.272C259.535 32.864 257.567 34.896 255.039 36.368C252.511 37.84 249.583 38.576 246.255 38.576ZM246.255 33.056C249.455 33.056 251.999 32 253.887 29.888C255.807 27.776 256.767 24.88 256.767 21.2C256.767 17.52 255.807 14.624 253.887 12.512C251.999 10.4 249.455 9.344 246.255 9.344C243.055 9.344 240.495 10.4 238.575 12.512C236.655 14.624 235.695 17.52 235.695 21.2C235.695 24.88 236.655 27.776 238.575 29.888C240.495 32 243.055 33.056 246.255 33.056ZM268.479 38V4.4H290.175V9.344H274.623V18.752H287.199V23.6H274.623V38H268.479ZM304.194 38L316.482 4.4H323.394L335.682 38H329.154L326.466 30.224H313.362L310.626 38H304.194ZM315.042 25.424H324.786L319.89 11.456L315.042 25.424ZM342.205 38V11.408L336.685 12.704V8L344.797 4.4H348.589V38H342.205ZM370.32 38.576C366.928 38.576 364.016 37.856 361.584 36.416C359.152 34.944 357.28 32.912 355.968 30.32C354.656 27.696 354 24.672 354 21.248C354 17.824 354.656 14.8 355.968 12.176C357.28 9.552 359.152 7.504 361.584 6.032C364.016 4.56 366.928 3.824 370.32 3.824C374.352 3.824 377.648 4.832 380.208 6.848C382.8 8.832 384.416 11.632 385.056 15.248H378.288C377.872 13.424 376.976 12 375.6 10.976C374.256 9.92 372.464 9.392 370.224 9.392C367.12 9.392 364.688 10.448 362.928 12.56C361.168 14.672 360.288 17.568 360.288 21.248C360.288 24.928 361.168 27.824 362.928 29.936C364.688 32.016 367.12 33.056 370.224 33.056C372.464 33.056 374.256 32.576 375.6 31.616C376.976 30.624 377.872 29.264 378.288 27.536H385.056C384.416 30.992 382.8 33.696 380.208 35.648C377.648 37.6 374.352 38.576 370.32 38.576Z" fill="#262626"/>
<path d="M411.988 38.288C411.092 38.288 410.308 38.12 409.636 37.784C408.964 37.448 408.42 36.976 408.004 36.368L407.668 38H404.932V20.72H408.004V27.8C408.388 27.272 408.892 26.808 409.516 26.408C410.156 26.008 410.98 25.808 411.988 25.808C413.108 25.808 414.108 26.08 414.988 26.624C415.868 27.168 416.564 27.912 417.076 28.856C417.588 29.8 417.844 30.872 417.844 32.072C417.844 33.272 417.588 34.344 417.076 35.288C416.564 36.216 415.868 36.952 414.988 37.496C414.108 38.024 413.108 38.288 411.988 38.288ZM411.34 35.6C412.316 35.6 413.124 35.272 413.764 34.616C414.404 33.96 414.724 33.112 414.724 32.072C414.724 31.032 414.404 30.176 413.764 29.504C413.124 28.832 412.316 28.496 411.34 28.496C410.348 28.496 409.532 28.832 408.892 29.504C408.268 30.16 407.956 31.008 407.956 32.048C407.956 33.088 408.268 33.944 408.892 34.616C409.532 35.272 410.348 35.6 411.34 35.6ZM426.372 38.288C425.172 38.288 424.108 38.032 423.18 37.52C422.252 37.008 421.524 36.288 420.996 35.36C420.468 34.432 420.204 33.36 420.204 32.144C420.204 30.912 420.46 29.816 420.972 28.856C421.5 27.896 422.22 27.152 423.132 26.624C424.06 26.08 425.148 25.808 426.396 25.808C427.564 25.808 428.596 26.064 429.492 26.576C430.388 27.088 431.084 27.792 431.58 28.688C432.092 29.568 432.348 30.552 432.348 31.64C432.348 31.816 432.34 32 432.324 32.192C432.324 32.384 432.316 32.584 432.3 32.792H423.252C423.316 33.72 423.636 34.448 424.212 34.976C424.804 35.504 425.516 35.768 426.348 35.768C426.972 35.768 427.492 35.632 427.908 35.36C428.34 35.072 428.66 34.704 428.868 34.256H431.988C431.764 35.008 431.388 35.696 430.86 36.32C430.348 36.928 429.708 37.408 428.94 37.76C428.188 38.112 427.332 38.288 426.372 38.288ZM426.396 28.304C425.644 28.304 424.98 28.52 424.404 28.952C423.828 29.368 423.46 30.008 423.3 30.872H429.228C429.18 30.088 428.892 29.464 428.364 29C427.836 28.536 427.18 28.304 426.396 28.304ZM440.025 38C438.777 38 437.777 37.696 437.025 37.088C436.273 36.48 435.897 35.4 435.897 33.848V28.664H433.857V26.096H435.897L436.257 22.904H438.969V26.096H442.185V28.664H438.969V33.872C438.969 34.448 439.089 34.848 439.329 35.072C439.585 35.28 440.017 35.384 440.625 35.384H442.113V38H440.025ZM448.926 38.288C447.902 38.288 447.062 38.128 446.406 37.808C445.75 37.472 445.262 37.032 444.942 36.488C444.622 35.944 444.462 35.344 444.462 34.688C444.462 33.584 444.894 32.688 445.758 32C446.622 31.312 447.918 30.968 449.646 30.968H452.67V30.68C452.67 29.864 452.438 29.264 451.974 28.88C451.51 28.496 450.934 28.304 450.246 28.304C449.622 28.304 449.078 28.456 448.614 28.76C448.15 29.048 447.862 29.48 447.75 30.056H444.75C444.83 29.192 445.118 28.44 445.614 27.8C446.126 27.16 446.782 26.672 447.582 26.336C448.382 25.984 449.278 25.808 450.27 25.808C451.966 25.808 453.302 26.232 454.278 27.08C455.254 27.928 455.742 29.128 455.742 30.68V38H453.126L452.838 36.08C452.486 36.72 451.99 37.248 451.35 37.664C450.726 38.08 449.918 38.288 448.926 38.288ZM449.622 35.888C450.502 35.888 451.182 35.6 451.662 35.024C452.158 34.448 452.47 33.736 452.598 32.888H449.982C449.166 32.888 448.582 33.04 448.23 33.344C447.878 33.632 447.702 33.992 447.702 34.424C447.702 34.888 447.878 35.248 448.23 35.504C448.582 35.76 449.046 35.888 449.622 35.888Z" fill="#1EC1F7"/>
<defs>
<filter id="filter0_i_483_2876" x="0" y="0" width="30.3716" height="40.1615" filterUnits="userSpaceOnUse" color-interpolation-filters="sRGB">
<feFlood flood-opacity="0" result="BackgroundImageFix"/>
<feBlend mode="normal" in="SourceGraphic" in2="BackgroundImageFix" result="shape"/>
<feColorMatrix in="SourceAlpha" type="matrix" values="0 0 0 0 0 0 0 0 0 0 0 0 0 0 0 0 0 0 127 0" result="hardAlpha"/>
<feOffset dy="2.16155"/>
<feGaussianBlur stdDeviation="1.08077"/>
<feComposite in2="hardAlpha" operator="arithmetic" k2="-1" k3="1"/>
<feColorMatrix type="matrix" values="0 0 0 0 0 0 0 0 0 0 0 0 0 0 0 0 0 0 0.25 0"/>
<feBlend mode="normal" in2="shape" result="effect1_innerShadow_483_2876"/>
</filter>
<filter id="filter1_i_483_2876" x="6.49805" y="8.75781" width="17.2344" height="19.3959" filterUnits="userSpaceOnUse" color-interpolation-filters="sRGB">
<feFlood flood-opacity="0" result="BackgroundImageFix"/>
<feBlend mode="normal" in="SourceGraphic" in2="BackgroundImageFix" result="shape"/>
<feColorMatrix in="SourceAlpha" type="matrix" values="0 0 0 0 0 0 0 0 0 0 0 0 0 0 0 0 0 0 127 0" result="hardAlpha"/>
<feOffset dy="2.16155"/>
<feGaussianBlur stdDeviation="1.08077"/>
<feComposite in2="hardAlpha" operator="arithmetic" k2="-1" k3="1"/>
<feColorMatrix type="matrix" values="0 0 0 0 0 0 0 0 0 0 0 0 0 0 0 0 0 0 0.25 0"/>
<feBlend mode="normal" in2="shape" result="effect1_innerShadow_483_2876"/>
</filter>
</defs>
</svg>
