<svg width="398" height="458" viewBox="0 0 398 458" fill="none" xmlns="http://www.w3.org/2000/svg">
<circle cx="184.42" cy="232.109" r="184" fill="#3EDB85"/>
<path d="M100.438 366.095C100.438 366.095 164.261 390.538 172.217 323.323L180.162 256.117" stroke="#2F2E41" stroke-miterlimit="10" stroke-linecap="round"/>
<path d="M195.256 386.359C194.248 388.65 185.624 403.149 183.342 402.141C181.06 401.133 185.972 384.993 187.008 382.702C187.552 381.702 188.452 380.943 189.53 380.577C190.608 380.21 191.785 380.264 192.825 380.726C193.866 381.189 194.694 382.026 195.144 383.072C195.595 384.117 195.635 385.294 195.256 386.368V386.359Z" fill="#FFBB43"/>
<path d="M127.392 408.097C127.392 408.097 122.589 422.404 129.683 431.688C133.88 437.187 143.952 439.744 143.952 439.744L142.669 447.332C142.669 447.332 133.349 447.112 134.568 456.708H156.105C156.105 456.708 177.881 408.611 160.504 392.242" fill="#E29A27"/>
<path d="M126.043 414.564C125.457 419.532 125.658 426.414 129.709 431.684C131.517 433.835 133.768 435.57 136.308 436.771C140.114 438.696 144.269 439.834 148.524 440.116C150.357 440.253 152.255 440.327 154.17 440.327C156.898 440.327 159.624 440.18 162.336 439.887C165.159 430.722 167.761 419.193 167.175 409.249C162.887 408.471 158.537 408.085 154.179 408.094C142.65 408.094 132.449 410.642 126.043 414.564Z" fill="#2F2E41"/>
<path d="M77.9381 385.719C77.9381 385.719 65.8772 414.973 89.11 445.831C89.11 445.831 81.4849 449.249 83.9319 456.71H107.98V428.418L77.9381 385.719Z" fill="#FFBB43"/>
<path d="M90.2088 362.336C90.2088 362.336 53.2287 412.743 93.0224 428.937C132.816 445.131 203.074 423.163 185.047 395.668C167.019 368.174 135.676 386.815 115.76 366.341" fill="#FFBB43"/>
<path d="M93.0234 428.938C110.987 436.269 135.182 435.775 154.62 430.523" stroke="#2F2E41" stroke-miterlimit="10" stroke-linecap="round"/>
<path d="M110.427 385.719C110.427 385.719 98.3571 414.973 121.59 445.831C121.59 445.831 113.974 449.249 116.412 456.71H140.433V428.418L110.427 385.719Z" fill="#FFBB43"/>
<path d="M111.93 428.828C114.379 434.9 117.627 440.617 121.589 445.829C121.589 445.829 113.973 449.247 116.411 456.708H140.432" stroke="#2F2E41" stroke-miterlimit="10" stroke-linecap="round"/>
<path d="M253.528 62.4297C253.528 62.4297 224.026 62.5672 220.076 120.846C216.126 179.126 206.952 213.503 184.498 227.708C162.044 241.914 163.877 271.81 169.376 274.504C174.875 277.199 177.313 259.345 182.207 259.666C205.064 261.16 231.981 244.746 239.78 224.62C247.58 204.494 259.943 142.796 259.943 142.796" fill="#C1B5B4"/>
<path d="M169.375 274.501C174.874 277.196 177.312 259.343 182.206 259.664C205.063 261.157 231.98 244.743 239.779 224.617" stroke="#2F2E41" stroke-miterlimit="10" stroke-linecap="round"/>
<path d="M250.118 114.977L219.562 127.807C219.562 127.807 224.145 134.809 244.482 136.184C264.818 137.559 250.118 114.977 250.118 114.977Z" fill="#2F2E41"/>
<path d="M241.246 130.305C247.145 130.313 253.032 129.779 258.833 128.71L253.518 62.4297C253.518 62.4297 224.016 62.5672 220.066 120.846C219.901 123.22 219.727 125.539 219.553 127.839C226.665 129.493 233.944 130.321 241.246 130.305Z" fill="#1EC1F7"/>
<path d="M215.998 157.107H229.333C229.753 157.118 230.17 157.033 230.552 156.857C230.934 156.682 231.27 156.422 231.536 156.096C231.801 155.77 231.989 155.388 232.083 154.979C232.178 154.569 232.178 154.144 232.082 153.734L226.519 127.825C226.391 127.195 226.045 126.63 225.543 126.228C225.041 125.826 224.413 125.613 223.77 125.626H210.444C210.024 125.615 209.607 125.7 209.225 125.876C208.844 126.051 208.507 126.312 208.241 126.637C207.976 126.963 207.789 127.345 207.694 127.754C207.599 128.164 207.599 128.589 207.695 128.999L213.249 154.898C213.375 155.531 213.72 156.098 214.223 156.502C214.725 156.905 215.354 157.12 215.998 157.107Z" fill="#2F2E41"/>
<path d="M211.002 156.465H224.025C224.431 156.461 224.83 156.367 225.195 156.191C225.56 156.014 225.882 155.759 226.137 155.444C226.392 155.128 226.574 154.761 226.67 154.367C226.766 153.973 226.774 153.563 226.692 153.165L221.267 127.779C221.132 127.171 220.795 126.627 220.31 126.235C219.826 125.844 219.223 125.629 218.6 125.625H205.586C205.18 125.629 204.781 125.723 204.416 125.899C204.051 126.076 203.729 126.331 203.474 126.646C203.22 126.961 203.038 127.329 202.942 127.723C202.846 128.117 202.838 128.527 202.919 128.924L208.354 154.283C208.482 154.893 208.815 155.442 209.296 155.838C209.777 156.234 210.379 156.455 211.002 156.465Z" fill="#2F2E41"/>
<path d="M217.958 131.523C218.276 131.527 218.584 131.638 218.83 131.84C219.077 132.042 219.248 132.321 219.314 132.632L220.762 139.359C220.788 139.479 220.787 139.604 220.759 139.723C220.73 139.842 220.675 139.954 220.598 140.049C220.52 140.144 220.422 140.22 220.311 140.272C220.2 140.324 220.078 140.351 219.956 140.349H219.039C218.72 140.35 218.41 140.241 218.162 140.041C217.913 139.841 217.741 139.561 217.674 139.249L216.226 132.522C216.2 132.402 216.201 132.277 216.229 132.158C216.258 132.038 216.313 131.926 216.39 131.83C216.467 131.734 216.565 131.657 216.676 131.604C216.787 131.551 216.909 131.523 217.032 131.523H217.958Z" fill="#1EC1F7"/>
<path d="M243.125 168.726C243.125 168.726 169.284 270.786 199.573 329.44C229.863 388.095 370.085 294.715 370.085 294.715L397.58 300.058L353.057 248.955C353.057 248.955 254.993 273.26 257.101 261.025C259.209 248.79 290.351 206.632 290.351 206.632L284.174 149.141" fill="#C1B5B4"/>
<path d="M397.58 300.056L353.057 248.953C353.057 248.953 335.323 253.352 315.105 257.458L347.632 308.433C361.296 300.579 370.095 294.686 370.095 294.686L397.58 300.056Z" fill="#DDE3E8"/>
<path d="M397.58 300.056L353.057 248.953C353.057 248.953 349.391 249.87 343.443 251.254L367.721 279.939C369.424 281.955 370.556 284.39 370.999 286.992C371.442 289.593 371.181 292.265 370.241 294.731L397.58 300.056Z" fill="#1EC1F7"/>
<path d="M340.29 312.571L319.394 315.934C316.786 316.353 314.118 316.201 311.574 315.489C309.03 314.776 306.671 313.52 304.66 311.807C302.649 310.094 301.033 307.965 299.925 305.566C298.817 303.168 298.243 300.558 298.242 297.916V275.188L255.543 346.838C284.321 341.358 317.149 325.402 340.29 312.571Z" fill="#2F2E41"/>
<path d="M247.067 267.116C255.096 267.116 254.775 266.09 261.96 264.229C258.633 263.808 256.8 262.809 257.103 261.022C259.192 248.786 290.353 206.628 290.353 206.628L286.943 174.854C277.776 168.604 267.402 164.342 256.489 162.344L243.126 168.759C243.126 168.759 212.222 211.458 198.604 257.511C210.087 263.56 232.019 267.116 247.067 267.116Z" fill="#2F2E41"/>
<path d="M314.996 151.508L257.863 165.099C257.863 165.099 214.669 269.12 217.418 437.964L199.547 456.706H263.976C263.976 456.706 282.03 305.486 307.664 249.7C329.66 201.869 314.996 151.508 314.996 151.508Z" fill="#C1B5B4"/>
<path d="M217.517 403.477C217.297 414.649 217.251 426.141 217.444 437.964L199.572 456.706H263.974C263.974 456.706 266.503 435.544 271.003 406.144L217.517 403.477Z" fill="#DDE3E8"/>
<path d="M248.193 171.8C244.463 181.624 240.815 212.125 230.99 266.198C248.907 271.916 270.353 275.252 293.412 275.252C295.034 275.252 296.638 275.252 298.242 275.197C300.838 266.51 303.985 257.997 307.663 249.71C322.327 217.853 320.696 184.878 317.983 166.402C309.821 165.537 301.619 165.105 293.412 165.109C280.563 165.1 259.713 169.893 248.193 171.8Z" fill="#2F2E41"/>
<path d="M234.328 248.953C227.452 282.689 222.692 316.821 220.076 351.15" stroke="#2F2E41" stroke-miterlimit="10" stroke-linecap="round"/>
<path d="M46.4199 456.711H324.06" stroke="#2F2E41" stroke-width="2" stroke-miterlimit="10" stroke-linecap="round"/>
<path d="M254.838 12.8125L243.079 16.011C243.079 16.011 237.837 25.6799 247.341 36.6228C253.444 43.6613 259.823 20.9692 259.823 20.9692L254.838 12.8125Z" fill="#155D93"/>
<path d="M242.841 34.4665C241.842 36.1712 242.355 40.7536 249.174 41.1477L250.292 38.7099C249.21 31.9554 244.591 31.4513 242.841 34.4665Z" fill="#C1B5B4"/>
<path d="M249.174 41.1464C242.355 40.7523 241.842 36.1699 242.841 34.4653C244.408 31.7708 248.257 31.8899 249.834 36.7656" stroke="#2F2E41" stroke-miterlimit="10" stroke-linecap="round"/>
<path d="M245.012 35.6658C245.08 35.5443 245.174 35.4399 245.289 35.3605C245.403 35.2811 245.534 35.2288 245.672 35.2075C245.953 35.1572 246.243 35.2023 246.496 35.3359C246.735 35.4667 246.937 35.6559 247.083 35.8857C247.219 36.1073 247.298 36.3593 247.312 36.6189C246.826 36.3806 246.515 36.1149 246.176 35.9499C245.824 35.7441 245.419 35.6454 245.012 35.6658Z" fill="#2F2E41"/>
<path d="M246.232 40.892C246.47 36.4959 246.056 32.0887 245.004 27.8138C245.004 27.8138 241.97 14.5248 257.12 13.5808C282.268 12.0319 280.536 33.1752 278.905 40.7454C278.905 40.7454 278.905 40.8095 278.905 40.837C278.822 41.1945 278.749 41.5336 278.676 41.8268C278.602 42.1201 278.611 42.0193 278.621 41.946C277.614 46.1381 275.195 49.8559 271.77 52.4746C268.346 55.0933 264.124 56.4531 259.814 56.3256C249.669 56.2523 245.334 49.3053 246.232 40.892Z" fill="#C1B5B4"/>
<path d="M238.873 11.71C238.498 12.6516 238.361 13.6712 238.474 14.6784C238.588 15.6856 238.948 16.6493 239.523 17.4838C240.742 19.1427 242.227 19.1701 246.14 19.3168C258.192 19.6834 277.842 13.5338 275.468 31.2311C274.808 36.0793 278.657 35.4836 278.657 35.4836L279.775 39.6994C279.775 39.6994 289.252 25.8421 284.761 16.1366C275.587 -3.56782 244.509 -3.35703 238.873 11.71Z" fill="#155D93"/>
<path d="M242.447 19.0776C243.364 19.2059 244.564 19.2426 246.113 19.2884C253.876 19.5267 264.791 17.0614 270.922 20.0033" stroke="#2F2E41" stroke-miterlimit="10" stroke-linecap="round"/>
<path d="M263.324 26.8019C264.282 26.5625 265.278 26.5146 266.255 26.6609C267.231 26.8072 268.17 27.1447 269.016 27.6542" stroke="#2F2E41" stroke-miterlimit="10" stroke-linecap="round"/>
<path d="M256.047 28.9389C256.885 30.1799 257.323 31.648 257.302 33.1455C257.234 33.8863 257.1 34.6195 256.899 35.3359C256.727 36.0548 256.501 36.7595 256.221 37.4438C256.087 37.7975 255.915 38.1355 255.708 38.452C255.529 38.6996 255.393 38.9752 255.305 39.2676C255.195 39.7534 255.561 40.1841 256.065 40.5874C256.566 40.9794 257.166 41.2267 257.797 41.3022C258.466 41.41 259.15 41.2522 259.704 40.8623C259.713 40.8556 259.724 40.852 259.736 40.852C259.747 40.852 259.758 40.8556 259.768 40.8623C259.773 40.8707 259.775 40.8802 259.775 40.8898C259.775 40.8995 259.773 40.9089 259.768 40.9173C259.55 41.2478 259.255 41.5205 258.909 41.7121C258.562 41.9036 258.175 42.0083 257.779 42.0171C256.961 42.0684 256.149 41.8389 255.479 41.3664C255.131 41.1264 254.841 40.8137 254.626 40.4499C254.394 40.0271 254.338 39.5298 254.471 39.066C254.606 38.6706 254.829 38.3105 255.121 38.012C255.366 37.7674 255.586 37.5005 255.781 37.2147C256.201 36.6454 256.483 35.9867 256.606 35.2901C256.677 34.5877 256.655 33.879 256.542 33.1822C256.423 31.7983 256.212 30.4327 255.964 28.9847C255.96 28.9763 255.957 28.9668 255.957 28.9572C255.957 28.9475 255.96 28.938 255.964 28.9297L256.047 28.9389Z" fill="#2F2E41"/>
<path d="M252.581 34.2694C252.632 33.5373 252.145 32.9067 251.494 32.8611C250.843 32.8154 250.273 33.3719 250.222 34.1041C250.171 34.8362 250.657 35.4667 251.308 35.5124C251.96 35.558 252.529 35.0015 252.581 34.2694Z" fill="#2F2E41"/>
<path d="M253.82 27.5473C252.21 27.2002 250.528 27.4997 249.137 28.3813" stroke="#2F2E41" stroke-miterlimit="10" stroke-linecap="round"/>
<path d="M250.347 41.7522C251.506 41.7522 252.446 40.8125 252.446 39.6534C252.446 38.4943 251.506 37.5547 250.347 37.5547C249.188 37.5547 248.248 38.4943 248.248 39.6534C248.248 40.8125 249.188 41.7522 250.347 41.7522Z" fill="#D86A61"/>
<path d="M266.932 33.924C266.987 33.1514 266.474 32.4862 265.787 32.438C265.1 32.3899 264.5 32.9771 264.446 33.7497C264.392 34.5222 264.904 35.1875 265.591 35.2356C266.278 35.2837 266.878 34.6965 266.932 33.924Z" fill="#2F2E41"/>
<path d="M269.271 41.0346C270.491 41.0346 271.48 40.0458 271.48 38.8259C271.48 37.6061 270.491 36.6172 269.271 36.6172C268.051 36.6172 267.062 37.6061 267.062 38.8259C267.062 40.0458 268.051 41.0346 269.271 41.0346Z" fill="#D86A61"/>
<path d="M255.388 39.6875C255.388 39.6875 255.764 40.604 257.679 40.0816C259.375 39.5867 260.273 40.6406 259.512 41.218C259.053 41.5471 258.511 41.7405 257.947 41.7761C257.383 41.8118 256.82 41.6883 256.323 41.4197C255.883 41.1034 255.512 40.7012 255.232 40.2374" fill="#2F2E41"/>
<path d="M262.114 43.9062C261.33 44.38 260.454 44.6786 259.544 44.7814C258.634 44.8842 257.713 44.7889 256.844 44.502" stroke="#2F2E41" stroke-miterlimit="10" stroke-linecap="round"/>
<path d="M284.44 34.7392C285.311 36.5721 284.358 41.292 277.264 41.0721L276.348 38.4509C278.08 31.5498 282.901 31.4582 284.44 34.7392Z" fill="#C1B5B4"/>
<path d="M277.265 41.0721C284.358 41.292 285.311 36.5996 284.441 34.7391C283.066 31.8064 279.061 31.5681 276.98 36.4805" stroke="#2F2E41" stroke-miterlimit="10" stroke-linecap="round"/>
<path d="M282.075 35.7832C281.654 35.7177 281.224 35.7783 280.837 35.9573C280.471 36.0948 280.123 36.3422 279.609 36.5622C279.65 36.2954 279.757 36.0431 279.921 35.829C280.091 35.6056 280.315 35.429 280.572 35.3158C280.845 35.203 281.147 35.1805 281.433 35.2516C281.575 35.2832 281.706 35.3479 281.818 35.4403C281.929 35.5327 282.017 35.6502 282.075 35.7832Z" fill="#2F2E41"/>
<path d="M250.914 38.215C253.086 38.215 254.846 36.4547 254.846 34.2833C254.846 32.1118 253.086 30.3516 250.914 30.3516C248.743 30.3516 246.982 32.1118 246.982 34.2833C246.982 36.4547 248.743 38.215 250.914 38.215Z" stroke="#2F2E41" stroke-miterlimit="10" stroke-linecap="round"/>
<path d="M265.69 38.215C267.861 38.215 269.621 36.4547 269.621 34.2833C269.621 32.1118 267.861 30.3516 265.69 30.3516C263.518 30.3516 261.758 32.1118 261.758 34.2833C261.758 36.4547 263.518 38.215 265.69 38.215Z" stroke="#2F2E41" stroke-miterlimit="10" stroke-linecap="round"/>
<path d="M254.837 34.6893C254.812 34.22 254.884 33.7507 255.047 33.3099C255.21 32.8691 255.461 32.4661 255.785 32.1254C256.108 31.7846 256.498 31.5133 256.93 31.3279C257.361 31.1425 257.826 31.0469 258.296 31.0469C258.766 31.0469 259.231 31.1425 259.663 31.3279C260.095 31.5133 260.485 31.7846 260.808 32.1254C261.132 32.4661 261.383 32.8691 261.546 33.3099C261.709 33.7507 261.78 34.22 261.756 34.6893" stroke="#2F2E41" stroke-miterlimit="10" stroke-linecap="round"/>
<path d="M269.621 33.8438H278.612" stroke="#2F2E41" stroke-miterlimit="10" stroke-linecap="round"/>
<path d="M245.344 33.8438H246.984" stroke="#2F2E41" stroke-miterlimit="10" stroke-linecap="round"/>
<path d="M276.815 56.6562C273.847 59.6771 270.099 61.8159 265.988 62.8351C261.877 63.8544 257.564 63.7142 253.527 62.4301C234.822 76.0582 240.193 111.801 240.193 153.648C240.193 159.403 237.901 164.994 236.921 170.447C236.617 172.166 236.995 173.935 237.973 175.381C238.952 176.827 240.454 177.834 242.163 178.191C251.904 180.25 261.837 181.263 271.793 181.216C288.968 181.216 300.69 178.576 314.336 173.81C316.232 173.147 317.889 171.937 319.097 170.331C320.304 168.726 321.007 166.798 321.118 164.792C321.329 161.126 321.448 157.341 321.448 153.529C321.448 101.729 301.735 59.3965 276.815 56.6562Z" fill="#1EC1F7"/>
<path d="M239.541 105.023C239.229 119.33 240.191 135.936 240.191 153.643" stroke="#2F2E41" stroke-miterlimit="10" stroke-linecap="round"/>
<path d="M291.883 190.43C291.883 190.43 293.413 206.926 307.161 210.904" stroke="#7F8AC9" stroke-miterlimit="10" stroke-linecap="round"/>
<path d="M293.127 195.978C297.85 195.586 302.539 194.857 307.158 193.797C307.158 193.797 307.507 201.486 306.388 205.867" stroke="#7F8AC9" stroke-miterlimit="10" stroke-linecap="round"/>
<path d="M265.011 448.49H242.86C238.136 448.493 233.458 447.566 229.092 445.76C224.727 443.955 220.76 441.307 217.418 437.969L199.547 456.711H263.976C263.976 456.711 264.333 453.741 265.011 448.49Z" fill="#1EC1F7"/>
<path d="M276.814 56.6529C276.814 56.6529 325.021 48.6886 343.433 111.642C361.534 173.523 331.812 200.706 225.555 187.646C222.954 187.359 220.46 186.453 218.282 185.003C216.104 183.554 214.305 181.603 213.036 179.315C211.697 177.055 211.292 174.362 211.909 171.809C212.197 170.744 212.237 169.627 212.028 168.544C211.818 167.46 211.363 166.439 210.699 165.559C208.554 162.672 206.043 158.346 206.95 154.872C209.397 145.552 227.196 153.498 227.196 153.498C227.196 153.498 232.997 143.838 243.124 149.135C253.251 154.433 320.063 157.384 307.232 126.691C294.401 95.9975 276.814 56.6529 276.814 56.6529Z" fill="#C1B5B4"/>
<rect x="334.172" y="127.969" width="11" height="16" rx="5.5" transform="rotate(-7.09411 334.172 127.969)" fill="#FEFEFE"/>
<rect x="337.766" y="132.562" width="5" height="6" rx="2.5" transform="rotate(-7.09411 337.766 132.562)" fill="#F1F1F1"/>
<path d="M206.951 154.847C209.398 145.526 227.196 153.472 227.196 153.472C227.196 153.472 232.998 143.84 243.125 149.137" stroke="#2F2E41" stroke-miterlimit="10" stroke-linecap="round"/>
<path d="M343.434 111.616C342.204 107.412 340.745 103.278 339.062 99.2339L295.025 98.125C298.994 107.29 303.118 116.913 306.857 125.858C306.857 125.858 326.791 131.247 345.844 120.955C345.154 117.936 344.351 114.823 343.434 111.616Z" fill="#2F2E41"/>
<path d="M322.374 182.625C302.697 191.414 271.179 193.229 225.556 187.62C222.956 187.333 220.462 186.427 218.283 184.977C216.105 183.528 214.306 181.577 213.037 179.289" stroke="#2F2E41" stroke-miterlimit="10" stroke-linecap="round"/>
<path d="M343.435 111.616C325.022 48.69 276.815 56.6268 276.815 56.6268C276.815 56.6268 274.982 78.6224 283.057 97.0804C288.033 108.509 294.971 118.004 306.885 125.83C321.283 124.722 334.224 120.332 344.113 113.916C343.893 113.174 343.655 112.404 343.435 111.616Z" fill="#1EC1F7"/>
<path d="M299.525 146.843C307.261 142.893 311.321 136.523 307.206 126.68C305.62 122.877 303.961 118.945 302.266 114.977" stroke="#2F2E41" stroke-miterlimit="10" stroke-linecap="round"/>
<path d="M254.609 123.05L279.656 121.639C279.946 121.621 280.226 121.527 280.468 121.367C280.71 121.206 280.906 120.985 281.036 120.725C281.166 120.465 281.226 120.176 281.209 119.886C281.191 119.596 281.099 119.316 280.939 119.073L265.533 95.6841C265.365 95.432 265.131 95.2308 264.857 95.1022C264.582 94.9736 264.278 94.9225 263.977 94.9547C263.676 94.9868 263.389 95.1008 263.148 95.2843C262.907 95.4678 262.721 95.7139 262.609 95.9957L252.968 120.805C252.867 121.063 252.833 121.343 252.869 121.617C252.905 121.892 253.01 122.153 253.173 122.377C253.337 122.601 253.554 122.78 253.805 122.897C254.056 123.015 254.332 123.068 254.609 123.05Z" fill="#68D5F9"/>
<path d="M125.475 360.162C125.475 364.689 117.227 368.657 107.054 368.355C85.599 367.713 89.3657 360.107 89.3657 355.597C89.3657 351.088 96.8901 351.977 107.054 351.977C117.218 351.977 125.475 355.643 125.475 360.162Z" fill="#2F2E41"/>
<path d="M98.9163 319.599C98.8305 319.655 98.7326 319.689 98.6309 319.699C98.5291 319.709 98.4265 319.695 98.3314 319.657C98.2364 319.619 98.1517 319.56 98.0844 319.483C98.0172 319.406 97.9693 319.314 97.9449 319.214C96.4876 313.816 87.5977 284.388 68.9656 292.316C48.4822 301.031 37.5486 331.935 81.7964 352.373C126.044 372.81 133.248 346.132 127.786 330.212C124.505 320.791 110.427 310.031 98.9163 319.599Z" fill="#FFBB43"/>
<path d="M105.039 360.477C116.394 361.677 123.094 357.727 126.485 351.999C124.652 350.553 122.472 349.613 120.162 349.274C117.852 348.935 115.493 349.208 113.322 350.067C111.151 350.925 109.243 352.338 107.79 354.165C106.336 355.992 105.388 358.168 105.039 360.477Z" fill="#2F2E41"/>
<path d="M103.014 327.096C103.935 326.628 104.342 325.583 103.925 324.762C103.508 323.94 102.423 323.654 101.503 324.122C100.582 324.59 100.174 325.635 100.592 326.456C101.009 327.277 102.094 327.563 103.014 327.096Z" fill="#2F2E41"/>
<path d="M99.0253 336.058C100.655 336.058 101.976 334.737 101.976 333.107C101.976 331.477 100.655 330.156 99.0253 330.156C97.3955 330.156 96.0742 331.477 96.0742 333.107C96.0742 334.737 97.3955 336.058 99.0253 336.058Z" fill="#D86A61"/>
<path d="M89.367 300.025C84.6563 293.371 77.9384 288.532 68.9661 292.345C66.0431 293.592 63.3268 295.276 60.9102 297.34C62.9997 302.591 68.9111 306.376 75.8855 306.376C78.4721 306.441 81.038 305.9 83.3787 304.798C85.7193 303.695 87.77 302.061 89.367 300.025Z" fill="#2F2E41"/>
<path d="M100.437 343.698C97.8877 344.281 95.242 344.307 92.6812 343.774C90.1204 343.241 87.7049 342.162 85.5996 340.609" stroke="#2F2E41" stroke-miterlimit="10" stroke-linecap="round"/>
<path d="M112.334 340.606C112.334 340.606 99.732 383.983 117.429 400.618C135.127 417.252 137.015 360.027 128.565 333.109" fill="#FFBB43"/>
<path d="M112.334 340.609C112.334 340.609 99.732 383.987 117.429 400.621C128.491 411.014 133.376 392.556 133.422 370.688" stroke="#2F2E41" stroke-miterlimit="10" stroke-linecap="round"/>
<path d="M112.334 340.609C112.334 340.609 99.732 383.987 117.429 400.621" stroke="#2F2E41" stroke-miterlimit="10" stroke-linecap="round"/>
<path d="M149.462 408.097C149.462 408.097 144.66 422.404 151.753 431.688C155.951 437.187 166.023 439.744 166.023 439.744L164.74 447.332C164.74 447.332 155.419 447.112 156.638 456.708H178.175C178.175 456.708 199.951 408.611 182.574 392.242" fill="#FFBB43"/>
<path d="M189.228 409.421C188.852 402.547 186.955 396.398 182.574 392.273" stroke="#2F2E41" stroke-miterlimit="10" stroke-linecap="round"/>
<path d="M149.462 408.094C149.462 408.094 144.66 422.4 151.753 431.684C155.951 437.183 166.023 439.74 166.023 439.74L164.74 447.328C164.74 447.328 155.419 447.108 156.638 456.704H178.175" stroke="#2F2E41" stroke-miterlimit="10" stroke-linecap="round"/>
<path d="M149.462 408.094C149.462 408.094 144.66 422.4 151.753 431.684C155.951 437.183 166.023 439.74 166.023 439.74L164.74 447.328C164.74 447.328 155.419 447.108 156.638 456.704H178.175" stroke="#2F2E41" stroke-miterlimit="10" stroke-linecap="round"/>
<path d="M181.079 238.094C181.079 238.094 173.289 253.527 178.632 254.746C182.481 255.663 186.496 251.841 188.439 249.641C188.772 249.261 189.215 248.991 189.707 248.87C190.198 248.749 190.715 248.781 191.188 248.963C193.938 249.999 199.858 250.796 206.768 242.676" stroke="#2F2E41" stroke-miterlimit="10" stroke-linecap="round"/>
</svg>
